<svg width="14" height="12" viewBox="0 0 14 12" fill="none" xmlns="http://www.w3.org/2000/svg">
<path fill-rule="evenodd" clip-rule="evenodd" d="M5.63003 0.0588339C5.54448 0.094902 5.42741 0.162352 5.36988 0.208697C5.15746 0.379719 0.216097 5.35734 0.146542 5.47034C0.0427282 5.63898 -0.0162299 5.89397 0.00392486 6.08703C0.0418793 6.45062 -0.104297 6.28776 2.78158 9.18105C4.9581 11.3631 5.45069 11.8438 5.57493 11.9067C5.78732 12.0143 6.12658 12.0311 6.35379 11.9454C6.59967 11.8526 6.77526 11.6973 6.8768 11.4828C6.95473 11.3182 6.96303 11.2755 6.96303 11.0397C6.96303 10.5893 7.00671 10.646 5.42382 9.04157C4.67388 8.28146 3.96066 7.57229 3.83886 7.46565C3.71442 7.35673 3.51422 7.21772 3.38198 7.14844L3.14658 7.0251L12.1766 7.0114L13.2066 6.9977L13.364 6.93408C13.5838 6.84528 13.8001 6.63951 13.9111 6.41362C13.9914 6.25021 14.0007 6.20702 14 5.99782C13.9993 5.80443 13.9868 5.73767 13.9271 5.60883C13.8308 5.40086 13.6554 5.21622 13.4541 5.11089L13.2888 5.02436L12.209 5.01066L3.12925 4.99696L3.3894 4.86107L3.64955 4.72516L5.22773 3.14811C7.04921 1.32788 6.96303 1.43614 6.96303 0.968074C6.96303 0.724203 6.95468 0.677007 6.88734 0.539806C6.84569 0.45498 6.74979 0.3277 6.67421 0.256934C6.4771 0.0724006 6.32996 0.0141599 6.03197 0.00270363C5.82026 -0.00543636 5.76358 0.00248438 5.63003 0.0588339Z" fill="white"/>
</svg>
