<svg width="24" height="18" viewBox="0 0 24 18" fill="none" xmlns="http://www.w3.org/2000/svg">
<path fill-rule="evenodd" clip-rule="evenodd" d="M10.0841 0.128545C10.4394 0.285166 10.765 0.594921 10.8803 0.885779C10.9945 1.17344 10.9813 1.76911 10.8547 2.04623C10.7954 2.17618 9.52412 3.44245 7.99326 4.89653L5.23855 7.51294L21.6234 7.54928L23.0082 7.58562L23.2994 7.75808C23.4596 7.85293 23.6828 8.06319 23.7953 8.22519C23.9658 8.47062 24 8.6005 24 9.00284C24 9.40519 23.9658 9.53507 23.7953 9.7805C23.6828 9.9425 23.4596 10.1528 23.2994 10.2476L23.0082 10.4201L21.6234 10.4564L5.23855 10.4927L7.99326 13.1092C9.52412 14.5632 10.7954 15.8295 10.8547 15.9595C10.9813 16.2366 10.9945 16.8322 10.8803 17.1199C10.6013 17.8237 9.60721 18.2054 8.88561 17.8859C8.55548 17.7396 0.462772 10.1641 0.189484 9.74532C-0.0722847 9.34436 -0.0612221 8.62688 0.212677 8.2326C0.530142 7.7756 8.5609 0.263436 8.88546 0.119824C9.25335 -0.0429755 9.70265 -0.0397054 10.0841 0.128545Z" fill="#33475B"/>
</svg>
