<svg width="8" height="8" viewBox="0 0 8 8" fill="none" xmlns="http://www.w3.org/2000/svg">
<path fill-rule="evenodd" clip-rule="evenodd" d="M4.76412 1.03304C4.72966 1.05122 4.68242 1.09308 4.65915 1.12608C4.62095 1.18024 4.61684 1.19665 4.61684 1.29521C4.61684 1.39127 4.62146 1.41095 4.6554 1.45947C4.67659 1.48979 4.71737 1.53045 4.746 1.54981L4.79806 1.58502L5.39082 1.58899L5.98358 1.59296L4.71915 2.85652C3.38487 4.18988 3.39768 4.17585 3.39768 4.30317C3.39768 4.36225 3.43827 4.46691 3.47892 4.51265C3.51622 4.55461 3.63799 4.60572 3.70025 4.60552C3.82794 4.60514 3.81395 4.61788 5.14873 3.28555L6.41388 2.02273L6.41786 2.61474L6.42184 3.20674L6.45709 3.25874C6.47648 3.28733 6.51719 3.32806 6.54755 3.34923C6.59602 3.38304 6.61593 3.38773 6.71092 3.38773C6.80591 3.38773 6.82582 3.38304 6.87428 3.34923C6.90465 3.32806 6.94536 3.28733 6.96475 3.25871L7 3.20671V2.19749V1.18827L6.96145 1.13315C6.94025 1.10282 6.89947 1.06217 6.87083 1.0428L6.81877 1.00759L5.82278 1.0038L4.82679 1L4.76412 1.03304ZM1.82996 1.60692C1.44289 1.66479 1.12486 1.95328 1.02705 2.3352C1.00079 2.43772 0.999821 2.50919 1.00002 4.3019C1.00024 6.37813 0.99394 6.24296 1.101 6.46501C1.14842 6.5634 1.1816 6.6076 1.28725 6.71311C1.3929 6.81863 1.43715 6.85177 1.53566 6.89913C1.758 7.00605 1.62266 6.99976 3.70152 6.99998C5.49583 7.00018 5.56809 6.99919 5.67059 6.97301C6.01511 6.88502 6.27489 6.62926 6.38125 6.27336C6.40382 6.19786 6.40654 6.08816 6.41136 5.05665C6.41428 4.43309 6.41263 4.88967 6.40768 4.84906C6.38991 4.70325 6.27896 4.59507 6.13277 4.58104C6.0144 4.56969 5.91554 4.62135 5.84798 4.72985L5.81547 4.78207L5.80842 4.95806C5.80139 6.13122 5.8013 6.13419 5.77077 6.19113C5.7294 6.26834 5.65933 6.33564 5.5828 6.37172L5.51934 6.40164H3.70025H1.88115L1.81458 6.3686C1.73885 6.33099 1.65673 6.24665 1.62243 6.17123C1.60114 6.1244 1.59912 5.96269 1.59912 4.30317V2.48638L1.62907 2.423C1.6652 2.34657 1.73259 2.27659 1.8099 2.23526C1.86668 2.2049 1.87359 2.20466 2.90455 2.19766L2.94206 2.19062L3.00083 2.15176C3.0854 2.09586 3.13136 2.01947 3.14 1.92045C3.14987 1.80752 3.09617 1.7029 2.99687 1.64157L2.92811 1.59911L2.91873 1.59708C2.36358 1.59596 1.87362 1.6004 1.82996 1.60692Z" fill="#1A2D55" stroke="#1A2D55" stroke-width="0.4"/>
</svg>
