<svg width="10" height="12" viewBox="0 0 10 12" fill="none" xmlns="http://www.w3.org/2000/svg">
<path d="M4 2.70785H6C6 2.42053 5.89464 2.14498 5.70711 1.94181C5.51957 1.73865 5.26522 1.62451 5 1.62451C4.73478 1.62451 4.48043 1.73865 4.29289 1.94181C4.10536 2.14498 4 2.42053 4 2.70785ZM3.25 2.70785C3.25 2.45888 3.29526 2.21235 3.38321 1.98234C3.47116 1.75233 3.60006 1.54333 3.76256 1.36729C3.92507 1.19124 4.11798 1.0516 4.3303 0.956323C4.54262 0.861049 4.77019 0.812012 5 0.812012C5.22981 0.812012 5.45738 0.861049 5.66969 0.956323C5.88201 1.0516 6.07493 1.19124 6.23744 1.36729C6.39994 1.54333 6.52884 1.75233 6.61679 1.98234C6.70473 2.21235 6.75 2.45888 6.75 2.70785H9.625C9.72445 2.70785 9.81984 2.75065 9.89016 2.82683C9.96049 2.90302 10 3.00635 10 3.1141C10 3.22184 9.96049 3.32517 9.89016 3.40136C9.81984 3.47754 9.72445 3.52035 9.625 3.52035H8.965L8.38 10.0805C8.33512 10.5831 8.11902 11.0496 7.77384 11.389C7.42866 11.7284 6.97915 11.9164 6.513 11.9162H3.487C3.02093 11.9162 2.57155 11.7282 2.22647 11.3889C1.8814 11.0495 1.66537 10.583 1.6205 10.0805L1.035 3.52035H0.375C0.275544 3.52035 0.180161 3.47754 0.109835 3.40136C0.0395088 3.32517 0 3.22184 0 3.1141C0 3.00635 0.0395088 2.90302 0.109835 2.82683C0.180161 2.75065 0.275544 2.70785 0.375 2.70785H3.25ZM4.25 5.28076C4.25 5.17302 4.21049 5.06969 4.14016 4.9935C4.06984 4.91731 3.97446 4.87451 3.875 4.87451C3.77554 4.87451 3.68016 4.91731 3.60983 4.9935C3.53951 5.06969 3.5 5.17302 3.5 5.28076V9.34326C3.5 9.45101 3.53951 9.55434 3.60983 9.63053C3.68016 9.70671 3.77554 9.74951 3.875 9.74951C3.97446 9.74951 4.06984 9.70671 4.14016 9.63053C4.21049 9.55434 4.25 9.45101 4.25 9.34326V5.28076ZM6.125 4.87451C6.02554 4.87451 5.93016 4.91731 5.85983 4.9935C5.78951 5.06969 5.75 5.17302 5.75 5.28076V9.34326C5.75 9.45101 5.78951 9.55434 5.85983 9.63053C5.93016 9.70671 6.02554 9.74951 6.125 9.74951C6.22445 9.74951 6.31984 9.70671 6.39016 9.63053C6.46049 9.55434 6.5 9.45101 6.5 9.34326V5.28076C6.5 5.17302 6.46049 5.06969 6.39016 4.9935C6.31984 4.91731 6.22445 4.87451 6.125 4.87451Z" fill="#E22028"/>
</svg>
