<svg width="11" height="10" viewBox="0 0 11 10" fill="none" xmlns="http://www.w3.org/2000/svg">
<path d="M4.58341 1.75H6.41675C6.41675 1.48478 6.32017 1.23043 6.14826 1.04289C5.97635 0.855357 5.7432 0.75 5.50008 0.75C5.25697 0.75 5.02381 0.855357 4.8519 1.04289C4.67999 1.23043 4.58341 1.48478 4.58341 1.75ZM3.89591 1.75C3.89591 1.52019 3.93741 1.29262 4.01802 1.0803C4.09864 0.867985 4.2168 0.675066 4.36576 0.512563C4.51472 0.350061 4.69157 0.221157 4.88619 0.133211C5.08082 0.0452651 5.28942 0 5.50008 0C5.71074 0 5.91934 0.0452651 6.11397 0.133211C6.3086 0.221157 6.48544 0.350061 6.6344 0.512563C6.78336 0.675066 6.90152 0.867985 6.98214 1.0803C7.06276 1.29262 7.10425 1.52019 7.10425 1.75H9.73967C9.83083 1.75 9.91827 1.78951 9.98273 1.85984C10.0472 1.93016 10.0834 2.02554 10.0834 2.125C10.0834 2.22446 10.0472 2.31984 9.98273 2.39017C9.91827 2.46049 9.83083 2.5 9.73967 2.5H9.13467L8.59841 8.5555C8.55728 9.01949 8.35918 9.45013 8.04277 9.76342C7.72635 10.0767 7.31431 10.2502 6.887 10.25H4.11316C3.68594 10.2501 3.274 10.0765 2.95768 9.76325C2.64136 9.44997 2.44333 9.01941 2.40221 8.5555L1.8655 2.5H1.2605C1.16933 2.5 1.0819 2.46049 1.01743 2.39017C0.952964 2.31984 0.916748 2.22446 0.916748 2.125C0.916748 2.02554 0.952964 1.93016 1.01743 1.85984C1.0819 1.78951 1.16933 1.75 1.2605 1.75H3.89591ZM4.81258 4.125C4.81258 4.02554 4.77636 3.93016 4.7119 3.85984C4.64743 3.78951 4.56 3.75 4.46883 3.75C4.37766 3.75 4.29023 3.78951 4.22576 3.85984C4.1613 3.93016 4.12508 4.02554 4.12508 4.125V7.875C4.12508 7.97446 4.1613 8.06984 4.22576 8.14017C4.29023 8.21049 4.37766 8.25 4.46883 8.25C4.56 8.25 4.64743 8.21049 4.7119 8.14017C4.77636 8.06984 4.81258 7.97446 4.81258 7.875V4.125ZM6.53133 3.75C6.44016 3.75 6.35273 3.78951 6.28826 3.85984C6.2238 3.93016 6.18758 4.02554 6.18758 4.125V7.875C6.18758 7.97446 6.2238 8.06984 6.28826 8.14017C6.35273 8.21049 6.44016 8.25 6.53133 8.25C6.6225 8.25 6.70993 8.21049 6.7744 8.14017C6.83886 8.06984 6.87508 7.97446 6.87508 7.875V4.125C6.87508 4.02554 6.83886 3.93016 6.7744 3.85984C6.70993 3.78951 6.6225 3.75 6.53133 3.75Z" fill="#BFCBD9"/>
</svg>
