<svg width="8" height="8" viewBox="0 0 8 8" fill="none" xmlns="http://www.w3.org/2000/svg">
<path fill-rule="evenodd" clip-rule="evenodd" d="M2.81669 1.00868C2.62029 1.04585 2.40591 1.17652 2.27022 1.34173C2.22278 1.3995 2.08567 1.6486 1.76691 2.25621C1.0902 3.54613 1.08278 3.56067 1.04991 3.66102C0.983038 3.86513 0.983391 4.12896 1.05081 4.33481C1.07026 4.39418 1.30103 4.84879 1.64383 5.50306C2.26085 6.68068 2.26088 6.68072 2.44714 6.81585C2.558 6.89629 2.67383 6.95073 2.79349 6.97865C2.91778 7.00766 5.08163 7.00686 5.20958 6.97775C5.40018 6.93441 5.55926 6.8387 5.69765 6.68409C5.80018 6.56956 5.82273 6.52803 6.79519 4.6641C6.86338 4.5334 6.9331 4.38397 6.95011 4.33203C7.01672 4.12868 7.01663 3.86405 6.94984 3.66021C6.93268 3.60782 6.87086 3.47364 6.81247 3.36201C5.72751 1.28801 5.80244 1.42601 5.69765 1.30896C5.57305 1.16976 5.45334 1.09193 5.25955 1.0241C5.20592 1.00534 5.06077 1.00251 4.03652 1.00029C3.39732 0.998896 2.8484 1.00267 2.81669 1.00868ZM5.16402 1.44254C5.19848 1.45264 5.25566 1.47819 5.29107 1.49932C5.4327 1.58382 5.4321 1.58284 6.01575 2.69679C6.315 3.26793 6.57038 3.76539 6.58328 3.80223C6.61597 3.89567 6.61596 4.09746 6.58325 4.19082C6.55223 4.27936 5.47948 6.32352 5.43786 6.37339C5.38638 6.43507 5.26789 6.51376 5.18309 6.54261C5.10749 6.56831 5.06775 6.56921 4.00001 6.56921C2.93227 6.56921 2.89253 6.56831 2.81693 6.54261C2.73222 6.5138 2.61381 6.43519 2.56205 6.37339C2.52099 6.32437 1.44848 4.28097 1.4165 4.19082C1.38328 4.09717 1.38328 3.89588 1.4165 3.80223C1.42957 3.76539 1.68508 3.26793 1.98431 2.69679C2.56822 1.5822 2.56719 1.5839 2.70946 1.49901C2.8347 1.42429 2.79937 1.42632 3.99392 1.4252C4.89578 1.42435 5.11298 1.42757 5.16402 1.44254ZM3.86614 2.73668C3.38238 2.80414 2.99513 3.18628 2.87829 3.71147C2.84188 3.87511 2.84188 4.11794 2.87829 4.28158C2.98425 4.75786 3.30953 5.11594 3.74112 5.23139C3.8895 5.27107 4.11052 5.27107 4.2589 5.23139C4.69057 5.11592 5.01666 4.75687 5.12152 4.28158C5.17504 4.03897 5.15069 3.73652 5.05842 3.49776C4.9473 3.21024 4.69883 2.93968 4.43922 2.82353C4.27323 2.74927 4.0349 2.71315 3.86614 2.73668ZM4.18255 3.18149C4.21267 3.18915 4.28386 3.22018 4.34075 3.25045C4.53408 3.35331 4.69392 3.57498 4.74348 3.80893C4.76351 3.90349 4.76351 4.08956 4.74348 4.18412C4.69395 4.41795 4.53421 4.63954 4.34075 4.74275C4.2122 4.81136 4.13241 4.83233 4.00001 4.83233C3.7913 4.83233 3.61307 4.75059 3.46411 4.58658C3.31516 4.42257 3.24093 4.22632 3.24093 3.99653C3.24093 3.85054 3.26001 3.76272 3.32245 3.62134C3.4752 3.27546 3.83284 3.09258 4.18255 3.18149Z" fill="#33475B" stroke="#1A2D55" stroke-width="0.5"/>
</svg>
