<svg width="12" height="12" viewBox="0 0 12 12" fill="none" xmlns="http://www.w3.org/2000/svg">
<path fill-rule="evenodd" clip-rule="evenodd" d="M1.87192 0.0193928C1.02097 0.130353 0.287872 0.79146 0.0573902 1.65566L0 1.87083V6.00179V10.1328L0.0573902 10.3479C0.266763 11.133 0.867275 11.7333 1.65257 11.9426L1.8678 12H5.97441C9.31039 12 10.1122 11.9936 10.2473 11.9657C10.6586 11.8808 11.1359 11.6171 11.4003 11.3288C11.6822 11.0214 11.8866 10.6306 11.9657 10.2479C11.9936 10.1128 12 9.31119 12 5.97621V1.87083L11.9422 1.65341C11.8229 1.20481 11.5344 0.755522 11.1874 0.477814C10.9869 0.317334 10.6291 0.136876 10.3625 0.0617256L10.1578 0.00404557L6.10235 0.000311077C3.84847 -0.0017608 1.96918 0.00673134 1.87192 0.0193928ZM6.2249 2.54677C6.2771 2.57389 6.69014 2.96811 7.14274 3.42284C7.98957 4.27367 8.02104 4.31247 8.02104 4.50544C8.02104 4.77297 7.76484 5.02868 7.4968 5.02868C7.32491 5.02868 7.20596 4.94925 6.87032 4.61046C6.69462 4.43313 6.54207 4.28802 6.5313 4.28802C6.52053 4.28802 6.51173 5.15186 6.51173 6.2077C6.51173 7.92498 6.50738 8.136 6.47035 8.20924C6.26687 8.61187 5.73313 8.61187 5.52965 8.20924C5.49262 8.136 5.48827 7.92498 5.48827 6.2077C5.48827 5.15186 5.47947 4.28802 5.4687 4.28802C5.45793 4.28802 5.30538 4.43313 5.12968 4.61046C4.79404 4.94925 4.67509 5.02868 4.5032 5.02868C4.23516 5.02868 3.97896 4.77297 3.97896 4.50544C3.97896 4.31247 4.01043 4.27369 4.85726 3.4229C5.30986 2.96818 5.72047 2.57445 5.76972 2.54795C5.89 2.48324 6.10142 2.4827 6.2249 2.54677ZM9.73461 9.53165C9.92392 9.6377 10.0385 9.86627 10.0042 10.0694C9.98262 10.1969 9.88176 10.3495 9.76723 10.428L9.6754 10.4909L6.05304 10.4984C3.64194 10.5034 2.40046 10.4972 2.34026 10.4798C2.23858 10.4505 2.10251 10.3287 2.03997 10.2111C1.97885 10.0961 1.98604 9.87533 2.0552 9.7427C2.1164 9.62537 2.26457 9.51181 2.39836 9.47973C2.44429 9.46873 4.08806 9.46152 6.05117 9.46372L9.62047 9.46771L9.73461 9.53165Z" fill="#1A2D55"/>
</svg>
