<svg width="13" height="13" viewBox="0 0 13 13" fill="none" xmlns="http://www.w3.org/2000/svg">
<path fill-rule="evenodd" clip-rule="evenodd" d="M11.774 0.0163375C11.5249 0.0968004 11.2057 0.346543 11.082 0.557793C11.0177 0.667556 9.81041 3.92487 9.82762 3.94208C9.83278 3.94724 10.2708 4.11083 10.801 4.30563C11.4559 4.54625 11.7701 4.65046 11.7809 4.63063C11.7897 4.61458 12.0625 3.87592 12.3871 2.98915C13.0333 1.22402 13.0332 1.22425 12.9609 0.881726C12.8864 0.529101 12.687 0.219158 12.4425 0.0758531C12.3403 0.0159566 12.294 0.00628278 12.0832 0.00087458C11.9501 -0.00255315 11.811 0.00440388 11.774 0.0163375ZM10.0101 0.319349C9.95262 0.346314 9.87675 0.406769 9.84154 0.453666C9.80477 0.502619 9.50521 1.27414 9.13839 2.26458C8.44863 4.12708 8.44807 4.12901 8.55118 4.33112C8.63083 4.48725 8.77942 4.57596 8.95703 4.57345C9.18135 4.57027 9.31785 4.47592 9.41287 4.25837C9.44024 4.19569 9.73464 3.41317 10.0671 2.51942C10.6074 1.06675 10.6716 0.87807 10.6724 0.740224C10.6733 0.565334 10.6129 0.449933 10.4685 0.351011C10.3509 0.270447 10.1447 0.256203 10.0101 0.319349ZM2.69306 3.37125C2.22722 3.45461 1.64229 3.83585 1.26763 4.30029C0.762026 4.92706 0.436722 5.75807 0.150772 7.15321C-0.134847 8.54672 -0.0129972 9.56042 0.502128 10.0761C0.774518 10.3488 1.09223 10.4794 1.48307 10.4794C1.88719 10.4794 2.20934 10.3561 2.80163 9.97484C2.99688 9.84916 3.16068 9.75039 3.16563 9.75534C3.17058 9.76029 3.1606 9.85124 3.14349 9.95745C3.09964 10.2291 3.12353 10.5136 3.20453 10.6848C3.34407 10.9797 3.59704 11.1859 3.87357 11.2301C4.06139 11.2602 4.3693 11.1641 4.65867 10.9853L4.73789 10.9363L4.79832 11.0252C4.93825 11.2309 5.1785 11.337 5.56969 11.3657C5.70934 11.376 5.84952 11.3983 5.88118 11.4154C5.91287 11.4325 6.03284 11.5317 6.14778 11.6358C6.39108 11.8563 6.51955 11.9269 6.67586 11.9261C6.96006 11.9247 7.18199 11.7006 7.18199 11.415C7.18199 11.237 7.10227 11.116 6.82668 10.8756C6.39016 10.4947 6.20664 10.4031 5.80755 10.3664L5.61379 10.3487L5.56827 10.2477C5.51233 10.1237 5.38535 10.0092 5.21732 9.93135C4.94818 9.80666 4.66246 9.82854 4.34459 9.99818C4.24333 10.0522 4.16051 10.0859 4.16051 10.0731C4.16051 10.0602 4.19598 9.89217 4.2393 9.69961C4.32446 9.32124 4.34426 8.98814 4.29117 8.82742C4.25666 8.72296 4.10422 8.56498 4.00017 8.52583C3.89693 8.48695 3.56485 8.49343 3.37581 8.53799C3.13404 8.59499 2.84317 8.74132 2.37943 9.03918C1.8574 9.37451 1.72519 9.44068 1.54464 9.45705C1.25966 9.4829 1.12433 9.33454 1.0494 8.91425C0.978354 8.51567 1.00867 8.05773 1.15418 7.33095C1.47741 5.71674 1.90697 4.87082 2.59899 4.48587C2.91784 4.3085 3.11302 4.32508 3.33648 4.54854C3.55824 4.77027 3.69792 5.09337 3.7812 5.57727C3.80867 5.7369 3.85097 5.90135 3.87522 5.94274C3.95241 6.07446 4.09391 6.16892 4.23425 6.1824C4.43437 6.20162 4.53114 6.17196 4.65408 6.05375C4.80642 5.90724 4.83565 5.7911 4.79594 5.49012C4.63278 4.25363 3.92968 3.39794 3.04332 3.35713C2.92462 3.35168 2.767 3.35802 2.69306 3.37125ZM9.50564 4.74044C9.462 4.81108 7.8973 9.11652 7.85124 9.29275C7.76341 9.62872 7.71261 10.0582 7.6973 10.5936C7.68308 11.091 7.70395 11.3352 7.78251 11.5899C7.8227 11.7203 7.82219 11.7268 7.75666 11.9113C7.6539 12.2008 7.67145 12.3066 7.83344 12.3743C7.91368 12.4078 7.93122 12.407 8.01549 12.3658C8.09753 12.3257 8.11944 12.2932 8.19762 12.096C8.27585 11.8986 8.30017 11.8625 8.40075 11.7952C8.78087 11.5406 9.41464 10.7304 9.74393 10.0781C9.82313 9.92125 11.4476 5.5179 11.4476 5.46014C11.4476 5.44173 11.444 5.42665 11.4397 5.42665C11.4353 5.42665 11.0009 5.26813 10.4743 5.0744C9.94777 4.88067 9.51186 4.73039 9.50564 4.74044Z" fill="#1A2D55"/>
</svg>
