<svg width="14" height="14" viewBox="0 0 14 14" fill="none" xmlns="http://www.w3.org/2000/svg">
<path fill-rule="evenodd" clip-rule="evenodd" d="M6.50611 0.00687174C6.45336 0.0130629 6.29303 0.0308144 6.14983 0.046347C5.24561 0.144419 4.24429 0.483561 3.4363 0.965455C2.40796 1.57873 1.57215 2.41418 0.958599 3.44207C0.48044 4.24311 0.162855 5.174 0.0332782 6.15441C-0.0110927 6.49008 -0.0110927 7.5172 0.0332782 7.85286C0.162855 8.83328 0.48044 9.76417 0.958599 10.5652C1.57215 11.5931 2.40796 12.4285 3.4363 13.0418C4.23769 13.5198 5.16898 13.8372 6.14983 13.9667C6.48564 14.0111 7.51322 14.0111 7.84903 13.9667C9.55556 13.7414 11.0021 12.9922 12.1827 11.7223C12.8358 11.0197 13.3467 10.1459 13.6603 9.19519C13.9075 8.44582 14 7.84911 14 7.00364C14 6.37817 13.9736 6.10184 13.8613 5.55174C13.4762 3.66561 12.2638 1.98006 10.5626 0.965455C9.76933 0.492382 8.82343 0.168225 7.87643 0.0448951C7.63608 0.0136107 6.67603 -0.013044 6.50611 0.00687174ZM7.82162 1.43138C8.75585 1.56778 9.64036 1.94447 10.4346 2.54416C10.7217 2.76094 11.244 3.28305 11.4609 3.57C12.2439 4.60611 12.6283 5.73679 12.6283 7.00364C12.6283 7.71693 12.5225 8.32057 12.2904 8.93086C11.9743 9.76222 11.5851 10.3677 10.9751 10.9775C10.0991 11.8531 9.03893 12.3897 7.80792 12.5806C7.39896 12.6441 6.5999 12.6441 6.19094 12.5806C5.22034 12.4301 4.36039 12.0642 3.56429 11.4631C3.27721 11.2463 2.75487 10.7242 2.538 10.4373C1.93662 9.64152 1.57058 8.78194 1.41999 7.81177C1.35648 7.40261 1.35651 6.60412 1.4201 6.1955C1.57009 5.23122 1.94117 4.35975 2.538 3.57C2.75487 3.28305 3.27721 2.76094 3.56429 2.54416C4.81322 1.60111 6.30807 1.21039 7.82162 1.43138ZM7.35571 2.47258C7.35571 2.77294 7.31663 2.88739 7.18105 2.98406C7.06403 3.06748 6.81775 3.06975 6.70681 2.98842C6.574 2.89103 6.5336 2.77411 6.53357 2.48688L6.53352 2.22995L6.34433 2.24858C5.89882 2.29247 5.39714 2.44861 4.87543 2.70579C4.40183 2.93927 4.06256 3.1781 3.67361 3.55195C2.88776 4.30724 2.39469 5.26136 2.24733 6.31193L2.21178 6.56533H2.4688C2.76139 6.56533 2.8708 6.59976 2.97626 6.72501C3.07897 6.84705 3.09775 6.99747 3.02948 7.15173C2.94411 7.34464 2.85131 7.38694 2.51325 7.38705C2.35964 7.3871 2.22845 7.39639 2.22168 7.40771C2.21493 7.41902 2.22507 7.5392 2.2442 7.6748C2.46433 9.23395 3.44822 10.5997 4.84803 11.2891C5.375 11.5487 5.87497 11.7066 6.32797 11.7566C6.41841 11.7666 6.51398 11.7807 6.54037 11.788C6.58406 11.8002 6.58833 11.773 6.58833 11.4831C6.58833 11.1456 6.60905 11.0686 6.72961 10.9579C6.92264 10.7807 7.24532 10.8475 7.37202 11.0909C7.39863 11.142 7.41052 11.2632 7.41052 11.4831C7.41052 11.7731 7.41477 11.8001 7.45848 11.7878C7.48488 11.7803 7.58543 11.7657 7.68196 11.7554C7.95353 11.7262 8.437 11.5978 8.761 11.4688C9.35435 11.2326 9.84196 10.918 10.3109 10.469C11.1519 9.66385 11.6425 8.66968 11.781 7.48989L11.7995 7.33237H11.4727C11.1782 7.33237 11.1368 7.32623 11.0534 7.27008C10.9336 7.18937 10.8491 6.99408 10.8749 6.85713C10.8978 6.73479 11.0108 6.59719 11.1288 6.54791C11.1844 6.52468 11.3235 6.51054 11.4967 6.51054H11.7752L11.7566 6.33932C11.6729 5.57001 11.2628 4.63014 10.7258 3.97656C9.94992 3.03236 8.86934 2.4216 7.67088 2.24989C7.52015 2.22831 7.38758 2.21039 7.37627 2.21012C7.36495 2.20984 7.35571 2.32794 7.35571 2.47258ZM4.74347 4.21067C4.7859 4.22645 5.31084 4.7287 5.90997 5.32683L6.99932 6.41428L7.56806 5.84705C8.17883 5.23788 8.26333 5.17745 8.45835 5.21038C8.60747 5.23558 8.7684 5.39707 8.79375 5.547C8.82847 5.75254 8.76596 5.83387 7.95509 6.63828C7.31131 7.27692 7.1904 7.38513 7.1022 7.40154C6.85053 7.44836 6.8997 7.48833 5.5234 6.11809C4.79903 5.39688 4.23651 4.81529 4.21475 4.76503C4.06423 4.41747 4.38757 4.07847 4.74347 4.21067Z" fill="#1A2D55"/>
</svg>
