<svg width="11" height="12" viewBox="0 0 11 12" fill="none" xmlns="http://www.w3.org/2000/svg">
<path fill-rule="evenodd" clip-rule="evenodd" d="M2.80827 0.0462033C2.67697 0.102235 2.58711 0.187086 2.5124 0.325572C2.4614 0.420095 2.44982 0.498573 2.44079 0.810314L2.43002 1.18226L2.268 1.19943C1.28874 1.30321 0.515349 1.86832 0.164315 2.73659C-0.00229036 3.14872 -0.000226969 3.09971 3.0934e-05 6.59592C0.000145557 8.64645 0.0108054 9.86648 0.0296323 9.98376C0.17784 10.9082 0.867529 11.6716 1.79274 11.9352L2.02004 12H5.50172H8.98341L9.21071 11.9352C10.0316 11.7013 10.6489 11.0996 10.9088 10.2799L10.9893 10.0261L10.9973 6.7297C11.0043 3.8387 10.9997 3.40176 10.9603 3.17661C10.8288 2.42576 10.3093 1.75921 9.5957 1.42573C9.37364 1.32196 9.0145 1.22721 8.73545 1.19879L8.57343 1.18226L8.56265 0.810314C8.5511 0.411354 8.51428 0.289956 8.36255 0.150681C8.12964 -0.0631245 7.72791 -0.0452181 7.50199 0.189032C7.36533 0.330732 7.3357 0.445362 7.3357 0.832253V1.18564H5.50172H3.66775V0.832253C3.66775 0.445362 3.63812 0.330732 3.50146 0.189032C3.32798 0.00917799 3.03603 -0.050999 2.80827 0.0462033ZM2.43555 2.71C2.43555 3.13048 2.47022 3.25281 2.63559 3.41552C2.93728 3.7124 3.40417 3.6408 3.59258 3.26874C3.66193 3.13181 3.66775 3.09236 3.66775 2.75927V2.39821H5.50172H7.3357V2.75927C7.3357 3.0932 7.3414 3.13155 7.41155 3.27009C7.60268 3.64757 8.10854 3.71392 8.39063 3.39851C8.53388 3.23837 8.5679 3.10561 8.5679 2.70637V2.39093L8.7147 2.41011C9.0619 2.45542 9.38602 2.656 9.57363 2.94163C9.75734 3.22137 9.77144 3.30351 9.77144 4.09528V4.79513H5.5H1.22859L1.23745 4.0401L1.24633 3.28504L1.34433 3.08928C1.45245 2.8733 1.638 2.67298 1.83541 2.55914C1.9717 2.48055 2.2253 2.40317 2.35674 2.40007L2.43555 2.39821V2.71ZM9.77144 7.906C9.77144 9.96786 9.77242 9.95387 9.61005 10.227C9.52099 10.3769 9.27134 10.6089 9.11439 10.6877C8.83357 10.8287 8.83222 10.8287 5.50172 10.8287C2.17123 10.8287 2.16988 10.8287 1.88905 10.6877C1.7321 10.6089 1.48245 10.3769 1.39339 10.227C1.23103 9.95387 1.232 9.96786 1.232 7.906V6.00769H5.50172H9.77144V7.906Z" fill="#1A2D55"/>
</svg>
