<svg width="13" height="12" viewBox="0 0 13 12" fill="none" xmlns="http://www.w3.org/2000/svg">
<path fill-rule="evenodd" clip-rule="evenodd" d="M0 0.542527V1.08505H0.809524H1.61905V0.542527V0H0.809524H0V0.542527ZM0 2.74484V3.28765L1.62698 3.27939L3.25397 3.27112L3.26267 2.73657L3.27137 2.20202H1.63568H0V2.74484ZM6.09635 2.27204C5.88625 2.35345 5.63454 2.59574 5.52257 2.82433L5.44444 2.9839V7.08477V11.1856L5.51362 11.3362C5.61679 11.5607 5.84219 11.7849 6.07194 11.8916L6.26984 11.9835H9.22289H12.1759L12.3862 11.8794C12.6308 11.7584 12.7987 11.5854 12.9163 11.3331L13 11.1537V7.08477V3.01581L12.9071 2.82571C12.7974 2.601 12.6014 2.39934 12.3902 2.29393L12.2381 2.21798L9.25397 2.21141C6.288 2.20489 6.26879 2.20525 6.09635 2.27204ZM0 4.91466V5.45719H0.809524H1.61905V4.91466V4.37213H0.809524H0V4.91466ZM0 7.08477V7.62729H1.63492H3.26984V7.08477V6.54224H1.63492H0V7.08477ZM0 9.25488V9.7974H0.809524H1.61905V9.25488V8.71235H0.809524H0V9.25488ZM0 11.4572V12L1.62698 11.9917L3.25397 11.9835L3.26267 11.4489L3.27137 10.9144H1.63568H0V11.4572Z" fill="#1A2D55"/>
</svg>
