<svg width="12" height="12" viewBox="0 0 12 12" fill="none" xmlns="http://www.w3.org/2000/svg">
<path fill-rule="evenodd" clip-rule="evenodd" d="M5.36404 0.0147784C5.12881 0.0364219 4.62061 0.137162 4.34962 0.215891C3.31841 0.515458 2.42748 1.05373 1.67241 1.83332C1.0288 2.49783 0.581975 3.22513 0.301856 4.06415C0.0640037 4.77653 -0.0198828 5.38181 0.00387145 6.21406C0.0301899 7.13669 0.204416 7.85036 0.603869 8.67211C0.965818 9.41666 1.58444 10.1864 2.25035 10.7207C2.875 11.2219 3.70496 11.6376 4.46234 11.8287C5.06966 11.9819 5.23236 12 5.99805 12C6.78078 12 6.95258 11.9799 7.57557 11.8151C9.23457 11.3764 10.6718 10.1713 11.4249 8.58746C11.8171 7.76252 12 6.94142 12 6.00547C12 4.65874 11.6072 3.48655 10.7811 2.36837C9.84031 1.09492 8.27445 0.196449 6.69656 0.0247113C6.44273 -0.00291458 5.62297 -0.0090098 5.36404 0.0147784ZM6.43481 1.20997C8.40742 1.38075 9.97644 2.61635 10.5713 4.46756C11.0305 5.89635 10.8107 7.51561 9.99002 8.75081C9.0589 10.1522 7.36015 10.95 5.61685 10.8046C4.49874 10.7113 3.56573 10.3215 2.75756 9.60993C1.50892 8.51051 0.939105 6.70244 1.2926 4.96139C1.62885 3.30513 2.824 1.96129 4.42244 1.4421C5.11379 1.21753 5.71759 1.14789 6.43481 1.20997ZM5.63173 3.01764C4.6551 3.12953 3.75008 3.77119 3.30799 4.66509C2.83564 5.6202 2.90315 6.77894 3.48199 7.65108C4.10506 8.58988 5.19018 9.10905 6.29417 8.9966C7.02371 8.9223 7.62928 8.62914 8.14486 8.10069C8.64088 7.59228 8.91305 7.00954 8.98491 6.30202C9.13166 4.8574 8.22894 3.52005 6.83381 3.11517C6.5963 3.04626 6.14982 2.98291 5.94983 2.98976C5.89111 2.99177 5.74797 3.00433 5.63173 3.01764Z" fill="#1A2D55"/>
</svg>
