<svg width="9" height="14" viewBox="0 0 9 14" fill="none" xmlns="http://www.w3.org/2000/svg">
<path fill-rule="evenodd" clip-rule="evenodd" d="M4.03273 0.0417318C3.14317 0.201736 2.40467 0.75977 2.01036 1.56986C1.8576 1.88368 1.7859 2.14807 1.75014 2.52934C1.71301 2.92523 1.71274 7.05445 1.74981 7.44318C1.81549 8.13165 2.0835 8.69997 2.56832 9.17873C3.91404 10.5077 6.15859 10.118 6.98937 8.41119C7.14213 8.09736 7.21383 7.83298 7.24959 7.45171C7.28697 7.05313 7.28697 2.92791 7.24959 2.52934C7.21383 2.14807 7.14213 1.88368 6.98937 1.56986C6.44802 0.457645 5.22753 -0.173157 4.03273 0.0417318ZM0.381731 6.75366C0.198495 6.79679 0.063199 6.92283 0.0140482 7.09621C-0.025256 7.23485 0.0224098 7.83243 0.101238 8.18919C0.300867 9.09275 0.796006 9.95036 1.46184 10.5459C2.13026 11.1437 2.9335 11.5292 3.78475 11.6608L3.99103 11.6927L3.9984 12.3547L4.00577 13.0167L3.04949 13.0173C2.17809 13.0179 2.08325 13.0224 1.98102 13.0686C1.61424 13.2342 1.61245 13.783 1.97813 13.9481C2.08837 13.9978 2.19437 14 4.49987 14C6.80536 14 6.91137 13.9978 7.0216 13.9481C7.38728 13.783 7.38549 13.2342 7.01872 13.0686C6.91648 13.0224 6.82164 13.0179 5.95024 13.0173L4.99396 13.0167L5.00133 12.3547L5.0087 11.6927L5.21499 11.6608C7.02909 11.3804 8.49962 9.99447 8.89849 8.18919C8.97625 7.8373 9.02485 7.2354 8.98676 7.09621C8.95251 6.97112 8.85594 6.85728 8.72846 6.79173C8.61803 6.73496 8.38861 6.7334 8.28104 6.78869C8.08887 6.8875 8.0335 7.01641 7.99634 7.45171C7.91617 8.39082 7.58372 9.10374 6.92949 9.73947C5.59144 11.0397 3.40829 11.0397 2.07024 9.73947C1.41602 9.10374 1.08357 8.39082 1.00339 7.45171C0.973906 7.1063 0.941863 6.9907 0.845377 6.88148C0.749276 6.7727 0.542688 6.71576 0.381731 6.75366Z" fill="#1A2D55"/>
</svg>
