<svg width="12" height="12" viewBox="0 0 12 12" fill="none" xmlns="http://www.w3.org/2000/svg">
<path fill-rule="evenodd" clip-rule="evenodd" d="M0.181898 0.0483281C0.128344 0.0766172 0.0759375 0.130523 0.0471328 0.186984C0.00196875 0.275531 0 0.323695 0 1.34123C0 2.32992 0.003 2.40865 0.0433828 2.48398C0.113203 2.61417 0.193664 2.66016 0.351562 2.66016C0.509461 2.66016 0.589922 2.61417 0.659742 2.48398C0.69968 2.40949 0.703125 2.33559 0.703125 1.55311V0.703125H1.55311C2.33559 0.703125 2.40949 0.69968 2.48398 0.659742C2.61417 0.589922 2.66016 0.509461 2.66016 0.351562C2.66016 0.193664 2.61417 0.113203 2.48398 0.0433828C2.40855 0.00292969 2.33093 7.03125e-05 1.33631 0.00103125C0.320531 0.00201562 0.265336 0.00428906 0.181898 0.0483281ZM9.51602 0.0433828C9.38583 0.113203 9.33984 0.193664 9.33984 0.351562C9.33984 0.509461 9.38583 0.589922 9.51602 0.659742C9.59051 0.69968 9.66441 0.703125 10.4469 0.703125H11.2969V1.55311C11.2969 2.33559 11.3003 2.40949 11.3403 2.48398C11.4101 2.61417 11.4905 2.66016 11.6484 2.66016C11.8063 2.66016 11.8868 2.61417 11.9566 2.48398C11.997 2.40865 12 2.32992 12 1.34123C12 0.323274 11.9981 0.275555 11.9528 0.186891C11.9224 0.127336 11.8727 0.0775547 11.8131 0.0471797C11.7244 0.00194531 11.6767 0 10.6588 0C9.67008 0 9.59135 0.003 9.51602 0.0433828ZM2.27391 2.09248C2.15599 2.15238 2.15583 2.15423 2.16211 3.40634L2.16797 4.57439L2.23373 4.63095C2.29945 4.68748 2.29985 4.6875 2.88567 4.6875C3.26074 4.6875 3.48888 4.67838 3.51914 4.66219C3.61259 4.61217 3.63281 4.50495 3.63281 4.05952V3.64099L3.69326 3.58416L3.7537 3.52734L4.40637 3.52045C5.12503 3.51286 5.20439 3.52455 5.25014 3.64493C5.28206 3.72888 5.28206 9.20862 5.25014 9.29257C5.21166 9.39382 5.1033 9.42188 4.75092 9.42188C4.30528 9.42188 4.33594 9.36954 4.33594 10.1305C4.33594 10.4605 4.3425 10.7476 4.35049 10.7685C4.39087 10.8737 4.41098 10.875 6 10.875C7.58902 10.875 7.60913 10.8737 7.64951 10.7685C7.6575 10.7476 7.66406 10.459 7.66406 10.1272C7.66406 9.36916 7.69533 9.42188 7.24577 9.42188C6.89688 9.42188 6.78825 9.39354 6.74986 9.29257C6.71794 9.20862 6.71794 3.72888 6.74986 3.64493C6.79561 3.52455 6.87497 3.51286 7.59363 3.52045C8.4386 3.52938 8.36102 3.47095 8.37131 4.10609L8.37891 4.57446L8.44467 4.63097L8.51044 4.6875H9.10547H9.7005L9.76627 4.63095L9.83203 4.57437V3.37767V2.181L9.77864 2.12761L9.72527 2.07422L6.02864 2.06859C3.09307 2.06412 2.32005 2.06904 2.27391 2.09248ZM0.196781 9.36033C0.156773 9.37847 0.0987656 9.42872 0.067875 9.47203L0.0117188 9.55078L0.00517969 10.6344C-0.00114844 11.686 7.0313e-05 11.7207 0.0465234 11.8118C0.0775547 11.8726 0.126891 11.9222 0.186891 11.9528C0.275555 11.9981 0.323274 12 1.34123 12C2.32992 12 2.40865 11.997 2.48398 11.9566C2.61417 11.8868 2.66016 11.8063 2.66016 11.6484C2.66016 11.4905 2.61417 11.4101 2.48398 11.3403C2.40949 11.3003 2.33559 11.2969 1.55311 11.2969H0.703125V10.4469C0.703125 9.66441 0.69968 9.59051 0.659742 9.51602C0.635859 9.47152 0.589195 9.41484 0.556008 9.39007C0.478875 9.33246 0.292336 9.31704 0.196781 9.36033ZM11.4937 9.36033C11.4536 9.37847 11.3956 9.42872 11.3647 9.47203L11.3086 9.55078L11.3019 10.4238L11.2952 11.2969H10.4461C9.66441 11.2969 9.59048 11.3003 9.51602 11.3403C9.38583 11.4101 9.33984 11.4905 9.33984 11.6484C9.33984 11.8063 9.38583 11.8868 9.51602 11.9566C9.59135 11.997 9.67008 12 10.6588 12C11.6767 12 11.7244 11.9981 11.8131 11.9528C11.8727 11.9224 11.9224 11.8727 11.9528 11.8131C11.9981 11.7244 12 11.6767 12 10.6588C12 9.67008 11.997 9.59135 11.9566 9.51602C11.9327 9.47152 11.8861 9.41484 11.8529 9.39007C11.7758 9.33246 11.5892 9.31704 11.4937 9.36033Z" fill="#1A2D55"/>
</svg>
