<svg width="15" height="12" viewBox="0 0 15 12" fill="none" xmlns="http://www.w3.org/2000/svg">
<path fill-rule="evenodd" clip-rule="evenodd" d="M4.38955 0.0615836C4.33043 0.0945557 4.25631 0.160067 4.22484 0.207143C4.15421 0.312803 0 11.6596 0 11.7468C0 11.7814 0.0341309 11.8525 0.0758496 11.9048L0.151699 12H1.06869C1.89853 12 1.99169 11.9949 2.04864 11.9459C2.09074 11.9097 2.26172 11.4763 2.56421 10.639C2.8616 9.81598 3.03817 9.3678 3.07904 9.33223C3.13711 9.28172 3.29238 9.2781 5.40715 9.2781C7.03916 9.2781 7.69351 9.28796 7.74624 9.31333C7.83973 9.3583 7.82874 9.33173 8.32017 10.7009C8.61442 11.5208 8.75754 11.8812 8.80834 11.9304C8.87962 11.9994 8.88762 12 9.78284 12C10.6429 12 10.689 11.9971 10.7604 11.9378C10.8016 11.9035 10.8434 11.8366 10.8533 11.7891C10.8674 11.7214 10.4194 10.4684 8.78804 6.01318C7.64224 2.88398 6.67998 0.281439 6.64972 0.229723C6.61945 0.178007 6.54281 0.104917 6.47938 0.0673057C6.36697 0.000588127 6.34084 -0.0010821 5.43059 0.000247916C4.56489 0.00151607 4.48925 0.00597015 4.38955 0.0615836ZM5.59383 3.05329C5.63701 3.09032 5.8701 3.69439 6.3307 4.96326C7.1523 7.2265 7.09585 7.05455 7.05645 7.17394C6.9946 7.36126 7.0023 7.36039 5.41945 7.36039C4.48857 7.36039 3.96062 7.34914 3.92417 7.32854C3.84398 7.28325 3.77121 7.12022 3.79204 7.03256C3.80171 6.99201 4.11999 6.09923 4.49936 5.0486C5.0095 3.63581 5.20814 3.12023 5.26222 3.06876C5.35096 2.98426 5.50482 2.97708 5.59383 3.05329ZM11.5172 5.47702C11.3849 5.51894 11.2939 5.58469 11.2337 5.68172C11.2063 5.72577 10.9685 6.35948 10.7051 7.09L10.2263 8.41819L10.4903 9.14438C10.6355 9.54379 10.7736 9.9217 10.7973 9.98418L10.8403 10.0978L11.9314 10.0879C13.0869 10.0774 13.212 10.0892 13.2763 10.2148C13.2956 10.2525 13.4458 10.6373 13.6101 11.07C13.7743 11.5027 13.9381 11.8889 13.974 11.9284C14.0361 11.9965 14.0592 12 14.4438 12H14.8483L14.9242 11.9048C14.9659 11.8525 15 11.7817 15 11.7475C15 11.6563 12.8973 5.8181 12.8173 5.68723C12.6994 5.49438 12.5887 5.45952 12.0703 5.45209C11.8206 5.44854 11.5717 5.45973 11.5172 5.47702ZM12.0927 7.10781C12.1335 7.13513 12.7734 8.79799 12.7734 8.87659C12.7734 8.99094 12.7201 8.99972 12.0264 8.99972C11.3326 8.99972 11.2793 8.99094 11.2793 8.87659C11.2793 8.79799 11.9192 7.13513 11.96 7.10781C11.9804 7.09414 12.0103 7.08298 12.0264 7.08298C12.0425 7.08298 12.0723 7.09414 12.0927 7.10781Z" fill="#1A2D55"/>
</svg>
