<svg width="13" height="13" viewBox="0 0 13 13" fill="none" xmlns="http://www.w3.org/2000/svg">
<path fill-rule="evenodd" clip-rule="evenodd" d="M1.26928 0.0392715C0.825259 0.134112 0.390202 0.474152 0.182827 0.888495C0.00654949 1.24072 0.000939266 1.29581 0.000431555 2.67955L0 3.8994L0.0671956 4.03425C0.232811 4.36662 0.679775 4.43308 0.924872 4.16176C0.975923 4.10525 1.03142 4.02821 1.0482 3.99056C1.07003 3.94162 1.08236 3.5667 1.0915 2.67627L1.10427 1.43048L1.16774 1.33678C1.20264 1.28525 1.2759 1.21183 1.33053 1.17368L1.42984 1.10427L2.67597 1.09158C4.07639 1.07731 4.02816 1.08391 4.20014 0.882961C4.42691 0.618037 4.34596 0.22253 4.03303 0.0665863L3.8994 0L2.66686 0.00200546C1.71784 0.00357937 1.39633 0.0121343 1.26928 0.0392715ZM8.96438 0.0665863C8.65145 0.22253 8.5705 0.618037 8.79727 0.882961C8.96925 1.08391 8.92102 1.07731 10.3214 1.09158L11.5676 1.10427L11.6669 1.17368C11.7215 1.21183 11.7948 1.28525 11.8297 1.33678L11.8931 1.43048L11.9058 2.67627C11.9201 4.07636 11.9135 4.02816 12.1144 4.20014C12.3814 4.42864 12.7776 4.34545 12.9328 4.02833L13 3.89085L12.9918 2.5991C12.9838 1.34632 12.9819 1.30238 12.9277 1.14235C12.7887 0.731942 12.4781 0.367938 12.1089 0.182954C11.7568 0.00654947 11.7018 0.000939266 10.3179 0.000431555L9.09801 0L8.96438 0.0665863ZM3.4648 2.7617C3.1602 2.86755 2.94531 3.05919 2.80929 3.34633L2.72895 3.5159L2.721 4.50594C2.71252 5.56152 2.71819 5.62443 2.83435 5.7625C3.06173 6.0327 3.48615 6.0097 3.69248 5.71597L3.76976 5.60595L3.78245 4.70054L3.79514 3.79514H6.49871H9.20227L9.21496 4.69633C9.22864 5.66827 9.22963 5.6752 9.37121 5.80398C9.62248 6.03252 9.99714 5.99229 10.1912 5.71589L10.2685 5.60582V4.56085V3.5159L10.1876 3.34523C10.0753 3.10803 9.90948 2.93917 9.67553 2.82354L9.48418 2.72895L6.5381 2.72321C3.7943 2.71788 3.58333 2.72052 3.4648 2.7617ZM2.03684 7.05648C1.89125 7.09133 1.76242 7.19691 1.69126 7.3397C1.57926 7.56444 1.61259 7.78273 1.78524 7.9551C1.92395 8.0936 2.03392 8.12338 2.4067 8.12338H2.71323L2.72108 8.80387L2.72895 9.48435L2.82354 9.67563C2.93917 9.90948 3.10813 10.0753 3.34523 10.1876L3.5159 10.2685H6.49871H9.48151L9.65218 10.1876C9.88928 10.0753 10.0582 9.90948 10.1739 9.67563L10.2685 9.48435L10.2763 8.80387L10.2842 8.12338H10.5907C10.9613 8.12338 11.0737 8.09333 11.2092 7.95805C11.459 7.70863 11.405 7.29477 11.0992 7.11499L10.9793 7.0445L6.54948 7.04056C4.1131 7.0384 2.0824 7.04556 2.03684 7.05648ZM0.41216 8.68133C0.266802 8.71581 0.137793 8.82148 0.0665863 8.96438L0 9.09801L0.000431555 10.3179C0.000939266 11.7018 0.00654947 11.7568 0.182954 12.1089C0.367938 12.4781 0.731942 12.7887 1.14235 12.9277C1.30238 12.9819 1.34632 12.9838 2.5991 12.9918L3.89085 13L4.02833 12.9328C4.34545 12.7776 4.42864 12.3814 4.20014 12.1144C4.02816 11.9135 4.07636 11.9201 2.67627 11.9058L1.43048 11.8931L1.33678 11.8297C1.28525 11.7948 1.21183 11.7215 1.17368 11.6669L1.10427 11.5676L1.0915 10.3214C1.08236 9.43079 1.07003 9.05579 1.0482 9.00685C0.987042 8.86962 0.838003 8.73469 0.703358 8.69471C0.56328 8.6531 0.536372 8.65186 0.41216 8.68133ZM12.3079 8.68552C12.2568 8.69966 12.1667 8.75249 12.1079 8.8029C11.9141 8.96877 11.9201 8.92374 11.9058 10.3214L11.8931 11.5676L11.8237 11.6669C11.7856 11.7215 11.7122 11.7948 11.6606 11.8297L11.5669 11.8931L10.3211 11.9059C8.95654 11.9199 8.99454 11.9155 8.82707 12.0782C8.56423 12.3336 8.63617 12.7699 8.96783 12.9321L9.10657 13L10.3983 12.9918C11.6511 12.9838 11.695 12.9819 11.8551 12.9277C12.3506 12.7599 12.7599 12.3506 12.9277 11.8551C12.9819 11.695 12.9838 11.6514 12.9917 10.3944L12.9999 9.09867L12.9277 8.96047C12.8095 8.73416 12.5494 8.61876 12.3079 8.68552Z" fill="#1A2D55"/>
</svg>
