<svg width="13" height="13" viewBox="0 0 13 13" fill="none" xmlns="http://www.w3.org/2000/svg">
<path fill-rule="evenodd" clip-rule="evenodd" d="M2.62126 0.0249726C1.60723 0.146711 0.728627 0.784652 0.286878 1.71998C0.0327387 2.25804 -0.00993611 2.58615 0.00171507 3.9127C0.00987919 4.84294 0.0125636 4.88567 0.0697955 4.99199C0.182239 5.20096 0.361352 5.31024 0.591386 5.31024C0.827067 5.31024 1.03521 5.17752 1.13393 4.96431C1.18086 4.86295 1.18526 4.76628 1.18626 3.81584C1.18751 2.6286 1.19982 2.52637 1.38613 2.1554C1.58946 1.75048 1.98518 1.41296 2.43177 1.26352C2.60145 1.20674 2.67681 1.20247 3.76017 1.18817C5.01507 1.17156 4.98493 1.1756 5.14938 1.00247C5.35589 0.785095 5.36239 0.408535 5.16335 0.19514C5.12984 0.159219 5.0526 0.103013 4.99171 0.0702473C4.88442 0.0124916 4.84896 0.0105544 3.8432 0.00676308C3.2724 0.00463218 2.72253 0.0128237 2.62126 0.0249726ZM8.13266 0.0226757C7.84625 0.109793 7.69002 0.315633 7.69002 0.605878C7.69002 0.83798 7.8354 1.05176 8.05583 1.14383C8.14254 1.18006 8.3211 1.18689 9.19051 1.18728C10.371 1.18783 10.4736 1.20018 10.845 1.38626C11.2479 1.58814 11.5879 1.98676 11.7369 2.43214C11.7937 2.60181 11.7979 2.67717 11.8122 3.7605C11.8288 5.01554 11.8251 4.98751 11.9979 5.14796C12.1384 5.27836 12.2478 5.31724 12.4401 5.30498C12.6545 5.29134 12.8165 5.19008 12.9206 5.00461L12.9898 4.88129L12.9983 3.9127C13.0099 2.58803 12.9671 2.25777 12.7146 1.72305C12.5565 1.38842 12.4013 1.16296 12.1503 0.903567C11.6751 0.412492 11.0427 0.103982 10.3479 0.0243638C10.0731 -0.00712924 8.23522 -0.00851296 8.13266 0.0226757ZM6.15406 3.57057C5.69931 3.62802 5.21754 3.80923 4.8361 4.06632C4.5917 4.23104 4.25855 4.56036 4.09072 4.80311C3.37308 5.84117 3.37389 7.16041 4.09274 8.20024C4.25758 8.43868 4.61522 8.79144 4.84786 8.94508C5.72098 9.52164 6.81444 9.60868 7.7309 9.17459C8.3897 8.86253 8.86245 8.39088 9.17072 7.73819C9.46574 7.11359 9.52742 6.42572 9.35 5.73919C9.27724 5.45763 9.03622 4.96182 8.85899 4.72909C8.35912 4.07269 7.62684 3.66145 6.79059 3.56752C6.50792 3.53578 6.42638 3.53617 6.15406 3.57057ZM0.356343 7.73429C0.229951 7.78908 0.143134 7.87216 0.0697955 8.00846C0.0125636 8.11478 0.00987919 8.15751 0.00171507 9.08774C-0.00993611 10.4143 0.0327387 10.7424 0.286878 11.2805C0.741108 12.2422 1.61558 12.8623 2.68085 12.9782C2.82852 12.9942 3.3683 13.0031 3.91239 12.9983L4.88101 12.9898L5.00433 12.9206C5.18981 12.8165 5.29107 12.6545 5.30472 12.4401C5.31698 12.2479 5.27809 12.1384 5.14769 11.998C4.98723 11.8251 5.01526 11.8289 3.76017 11.8123C2.67681 11.798 2.60145 11.7937 2.43177 11.7369C1.98637 11.5879 1.58774 11.248 1.38585 10.845C1.19977 10.4737 1.18742 10.371 1.18687 9.19064C1.18634 8.0671 1.18305 8.04014 1.0258 7.87446C0.858256 7.69795 0.576303 7.6389 0.356343 7.73429ZM12.1595 7.73612C12.0475 7.79506 11.9292 7.9077 11.8734 8.00846C11.8333 8.08082 11.8256 8.23893 11.8133 9.23995L11.7992 10.3884L11.7253 10.5914C11.6206 10.8793 11.4951 11.0782 11.2866 11.2866C11.0781 11.4951 10.8792 11.6206 10.5913 11.7254L10.3883 11.7992L9.23983 11.8133C7.98438 11.8288 8.01291 11.825 7.85231 11.998C7.73967 12.1193 7.69002 12.2406 7.69002 12.3943C7.69002 12.6388 7.79489 12.8154 8.00829 12.9302C8.11461 12.9874 8.15734 12.9901 9.08761 12.9983C10.4145 13.0099 10.7443 12.9674 11.2733 12.7169C11.9321 12.4048 12.4048 11.9332 12.7131 11.2805C12.9673 10.7424 13.0099 10.4143 12.9983 9.08774C12.9901 8.15751 12.9874 8.11478 12.9302 8.00846C12.8554 7.86951 12.7686 7.78784 12.6374 7.73305C12.5064 7.67828 12.2665 7.67983 12.1595 7.73612Z" fill="#1A2D55"/>
</svg>
