<svg width="12" height="13" viewBox="0 0 12 13" fill="none" xmlns="http://www.w3.org/2000/svg">
<path d="M11.9677 0.633143C11.9356 0.554881 11.881 0.487886 11.8108 0.440602C11.7407 0.393318 11.6581 0.367861 11.5735 0.367439H0.431047C0.345926 0.366944 0.262585 0.391809 0.191651 0.438865C0.120717 0.485921 0.0654025 0.553035 0.0327608 0.631651C0.000119188 0.710267 -0.00837113 0.796822 0.00837237 0.880282C0.0251159 0.963742 0.0663345 1.04033 0.126773 1.10027L4.28804 5.25725V11.9384C4.28755 12.0235 4.31241 12.1069 4.35947 12.1778C4.40652 12.2488 4.47364 12.3041 4.55225 12.3367C4.63087 12.3693 4.71742 12.3778 4.80088 12.3611C4.88434 12.3444 4.96093 12.3031 5.02087 12.2427L7.5922 9.67136C7.63192 9.63132 7.66334 9.58383 7.68467 9.53162C7.706 9.4794 7.71681 9.42349 7.71648 9.36709V5.25725L11.8777 1.09598C11.9364 1.03608 11.9761 0.960316 11.9921 0.878052C12.0081 0.795788 11.9996 0.71064 11.9677 0.633143ZM6.98365 4.77727C6.94393 4.81731 6.91251 4.8648 6.89118 4.91702C6.86985 4.96923 6.85904 5.02514 6.85937 5.08154V9.19138L5.14515 10.9056V5.08154C5.14548 5.02514 5.13467 4.96923 5.11334 4.91702C5.09201 4.8648 5.06059 4.81731 5.02087 4.77727L1.46386 1.22455H10.5407L6.98365 4.77727Z" fill="#E22028"/>
</svg>
