<svg width="12" height="15" viewBox="0 0 12 15" fill="none" xmlns="http://www.w3.org/2000/svg">
<path fill-rule="evenodd" clip-rule="evenodd" d="M5.53421 0.00910098C4.93919 0.123677 4.38461 0.510823 4.07673 1.02661C3.92346 1.28342 3.78793 1.69964 3.75606 2.01151L3.73248 2.2425L2.83253 2.24302C1.80219 2.24362 1.63925 2.26854 1.21377 2.49054C0.692743 2.76244 0.288798 3.23755 0.0977534 3.80324L0 4.09276V8.62151V13.1503L0.0977534 13.4398C0.288798 14.0055 0.692743 14.4806 1.21377 14.7525C1.71132 15.0121 1.46718 14.9994 5.9805 15C8.75277 15.0003 10.0871 14.9885 10.2146 14.9623C10.4976 14.9042 11.0064 14.6424 11.2337 14.438C11.6205 14.09 11.8776 13.605 11.963 13.0621C12.0123 12.7486 12.0123 4.49446 11.963 4.18087C11.8269 3.31586 11.267 2.63415 10.4535 2.34322C10.2391 2.26657 10.1645 2.26082 9.23707 2.24961L8.24903 2.23767L8.2257 2.00908C8.13343 1.1058 7.57836 0.388423 6.73856 0.0871646C6.5823 0.031128 6.43058 0.0118147 6.07885 0.00328582C5.82761 -0.00281124 5.58253 -0.000167974 5.53421 0.00910098ZM6.26381 1.52082C6.52672 1.59913 6.7289 1.88016 6.7289 2.16729C6.7289 2.24168 6.72092 2.2425 5.991 2.2425C5.15789 2.2425 5.20272 2.26079 5.2932 1.9578C5.41067 1.56459 5.80889 1.38531 6.26381 1.52082ZM10.1209 3.84659C10.2457 3.92398 10.319 4.00416 10.3905 4.1414L10.4886 4.32988V8.62151V12.9131L10.3905 13.1016C10.319 13.2389 10.2457 13.319 10.1209 13.3964L9.94953 13.5027H5.991H2.03248L1.86111 13.3964C1.73634 13.319 1.66304 13.2389 1.59153 13.1016L1.49336 12.9131V8.6244V4.33569L1.58553 4.15017C1.68398 3.952 1.86217 3.80549 2.06386 3.75682C2.12693 3.74163 3.92701 3.7317 6.06406 3.73476L9.94956 3.74033L10.1209 3.84659ZM3.46108 5.29434C3.18662 5.4136 3.00429 5.68649 3.00429 5.97799C3.00429 6.28901 3.13753 6.51393 3.40837 6.66012C3.5484 6.73572 3.55813 6.736 5.991 6.736H8.43309L8.58966 6.64789C8.82501 6.51545 8.95372 6.30903 8.97105 6.03632C8.98696 5.78563 8.91982 5.61026 8.74377 5.44268C8.52244 5.232 8.6047 5.23802 5.98334 5.23954C3.919 5.24074 3.56688 5.24838 3.46108 5.29434ZM3.46108 7.5499C3.18662 7.66917 3.00429 7.94206 3.00429 8.23355C3.00429 8.54457 3.13753 8.76949 3.40837 8.91568C3.5484 8.99128 3.55813 8.99156 5.991 8.99156H8.43309L8.58966 8.90345C8.82501 8.77101 8.95372 8.56459 8.97105 8.29188C8.98696 8.04119 8.91982 7.86582 8.74377 7.69824C8.52244 7.48756 8.6047 7.49359 5.98334 7.4951C3.919 7.4963 3.56688 7.50395 3.46108 7.5499ZM3.46108 9.80547C3.18662 9.92473 3.00429 10.1976 3.00429 10.4891C3.00429 10.8001 3.13753 11.0251 3.40837 11.1712C3.54232 11.2436 3.59344 11.2471 4.49765 11.2471H5.44637L5.61232 11.1493C6.03566 10.8997 6.11047 10.3251 5.76468 9.97883C5.55185 9.76568 5.45687 9.74908 4.45843 9.75066C3.7569 9.75179 3.55975 9.76261 3.46108 9.80547Z" fill="#E22028"/>
</svg>
