<svg width="13" height="12" viewBox="0 0 13 12" fill="none" xmlns="http://www.w3.org/2000/svg">
<path fill-rule="evenodd" clip-rule="evenodd" d="M3.93615 0.0173545C3.51064 0.0916943 3.04613 0.353036 2.75213 0.683465C2.64935 0.798994 2.35228 1.29721 1.66164 2.51243C0.195439 5.09226 0.179355 5.12134 0.108138 5.32204C-0.0367502 5.73026 -0.0359855 6.25793 0.110089 6.66961C0.152223 6.78836 0.652225 7.69759 1.39496 9.00612C2.73183 11.3614 2.73191 11.3614 3.13546 11.6317C3.37567 11.7926 3.62663 11.9015 3.8859 11.9573C4.15518 12.0153 8.84354 12.0137 9.12076 11.9555C9.53372 11.8688 9.8784 11.6774 10.1782 11.3682C10.4004 11.1391 10.4492 11.0561 12.5562 7.32819C12.704 7.0668 12.855 6.76794 12.8919 6.66406C13.0362 6.25737 13.036 5.72809 12.8913 5.32043C12.8541 5.21565 12.7202 4.94728 12.5937 4.72402C10.2429 0.576028 10.4053 0.852029 10.1782 0.617915C9.90827 0.339529 9.6489 0.183855 9.22902 0.0481999C9.11282 0.0106817 8.79834 0.0050271 6.57912 0.000578506C5.19418 -0.00220857 4.00487 0.00534867 3.93615 0.0173545ZM9.02204 0.885072C9.09671 0.905278 9.22059 0.956383 9.29731 0.998645C9.60418 1.16764 9.60288 1.16568 10.8675 3.39357C11.5158 4.53587 12.0692 5.53077 12.0971 5.60447C12.1679 5.79134 12.1679 6.19493 12.097 6.38163C12.0298 6.55872 9.70553 10.647 9.61536 10.7468C9.50382 10.8701 9.24709 11.0275 9.06336 11.0852C8.89957 11.1366 8.81345 11.1384 6.50002 11.1384C4.18659 11.1384 4.10047 11.1366 3.93668 11.0852C3.75314 11.0276 3.49659 10.8704 3.38445 10.7468C3.29548 10.6487 0.971716 6.56193 0.902423 6.38163C0.83044 6.19434 0.83044 5.79177 0.902423 5.60447C0.930741 5.53077 1.48435 4.53587 2.13266 3.39357C3.39781 1.1644 3.39557 1.1678 3.70383 0.998029C3.97518 0.848572 3.89863 0.852645 6.48684 0.850394C8.44086 0.848706 8.91146 0.855137 9.02204 0.885072ZM6.20998 3.47335C5.16183 3.60828 4.32277 4.37256 4.06962 5.42293C3.99073 5.75023 3.99073 6.23587 4.06962 6.56317C4.2992 7.51573 5.00397 8.23187 5.93908 8.46277C6.26058 8.54215 6.73946 8.54215 7.06096 8.46277C7.99623 8.23185 8.70276 7.51375 8.92997 6.56317C9.04593 6.07795 8.99317 5.47305 8.79325 4.99552C8.55249 4.42047 8.01413 3.87935 7.45164 3.64706C7.09199 3.49854 6.57561 3.42629 6.20998 3.47335ZM6.89553 4.36299C6.96079 4.37829 7.11503 4.44036 7.2383 4.5009C7.65717 4.70663 8.0035 5.14996 8.11087 5.61787C8.15427 5.80699 8.15427 6.17911 8.11087 6.36823C8.00356 6.8359 7.65746 7.27907 7.2383 7.4855C6.95976 7.62271 6.78689 7.66465 6.50002 7.66465C6.04782 7.66465 5.66165 7.50118 5.33891 7.17316C5.01618 6.84514 4.85534 6.45265 4.85534 5.99305C4.85534 5.70108 4.89668 5.52544 5.03197 5.24269C5.36293 4.55093 6.13781 4.18515 6.89553 4.36299Z" fill="#E22028"/>
</svg>
