<svg width="13" height="13" viewBox="0 0 13 13" fill="none" xmlns="http://www.w3.org/2000/svg">
<path fill-rule="evenodd" clip-rule="evenodd" d="M6.0293 0.0301484C5.29212 0.209373 4.73603 0.676668 4.42331 1.37963C4.32295 1.60526 4.23594 1.95609 4.23312 2.14661C4.23202 2.21931 4.22337 2.29915 4.21385 2.32401C4.20433 2.34888 4.05335 2.45429 3.87835 2.5583C3.49589 2.78559 3.28573 2.94033 2.95349 3.23938C2.15023 3.96233 1.56245 4.95582 1.29495 6.04272C1.17582 6.52678 1.14886 6.75029 1.13825 7.34171L1.13075 7.75991C1.12907 7.85409 1.08163 7.94154 1.00361 7.99431C0.690747 8.20595 0.334581 8.64467 0.18124 9.00732C0.048772 9.32059 0.000153031 9.57585 3.0134e-07 9.95909C-0.000203339 10.4782 0.102787 10.8472 0.363726 11.2622C0.736209 11.8547 1.32939 12.2286 2.03375 12.3149C2.4377 12.3644 2.89426 12.2826 3.2476 12.0975C3.32771 12.0556 3.4043 12.0213 3.41784 12.0213C3.43136 12.0213 3.54336 12.0872 3.66674 12.1677C4.31824 12.5928 5.04689 12.8583 5.87657 12.9727C6.13847 13.0089 6.81667 13.0091 7.10416 12.9732C7.90688 12.873 8.73099 12.5717 9.37052 12.1447C9.47216 12.0768 9.56548 12.0213 9.57788 12.0213C9.5903 12.0213 9.68468 12.0627 9.78762 12.1134C10.4972 12.4626 11.3589 12.3837 12.0347 11.9077C12.4597 11.6084 12.8026 11.0976 12.9434 10.554C12.9865 10.3874 12.9985 10.2637 12.9999 9.97231C13.0019 9.57458 12.9564 9.33169 12.8192 9.00732C12.6648 8.64215 12.3062 8.2018 11.9938 7.99355C11.9142 7.94053 11.8668 7.85096 11.8676 7.75536L11.8698 7.49772C11.8774 6.62114 11.7063 5.80142 11.3565 5.03858C10.8726 3.98327 10.1267 3.1553 9.12208 2.5583C8.94707 2.45429 8.7961 2.34888 8.78658 2.32401C8.77706 2.29915 8.7683 2.21931 8.76713 2.14661C8.76288 1.88828 8.65307 1.51053 8.49477 1.2099C8.20975 0.668578 7.74853 0.278615 7.16204 0.0830248C6.97424 0.0204192 6.89527 0.00971172 6.56385 0.00193889C6.29792 -0.00427409 6.13567 0.00426544 6.0293 0.0301484ZM6.80511 1.03768C7.02497 1.09151 7.24884 1.22547 7.42214 1.40689C8.05798 2.07258 7.86577 3.15736 7.03887 3.57001C6.89387 3.64236 6.73405 3.68002 6.57201 3.68002H6.50021H6.42841C6.26637 3.68002 6.10655 3.64236 5.96156 3.57001C5.13509 3.1576 4.94219 2.06531 5.579 1.4039C5.90849 1.06166 6.35649 0.927858 6.80511 1.03768ZM4.56077 3.58207C4.80438 4.00796 5.23258 4.37585 5.7036 4.56396C6.18449 4.756 6.81593 4.756 7.29683 4.56396C7.76785 4.37585 8.19605 4.00796 8.43965 3.58207C8.49616 3.48327 8.55242 3.40242 8.56464 3.40242C8.57686 3.40242 8.66786 3.45281 8.76688 3.51441C9.30467 3.84899 9.81776 4.36289 10.1728 4.92262C10.6229 5.63217 10.8529 6.37862 10.8956 7.26901L10.9013 7.38771C10.907 7.50659 10.8122 7.60609 10.6932 7.60609C9.74824 7.60609 8.8881 8.26237 8.57327 9.2235C8.36897 9.84726 8.45299 10.6398 8.78055 11.1787C8.85663 11.3039 8.87435 11.2804 8.5748 11.4516C8.17663 11.679 7.6969 11.8469 7.16204 11.9462C6.88049 11.9984 6.06613 11.9911 5.77067 11.9336C5.19816 11.8223 4.57895 11.5789 4.18819 11.3117C4.16146 11.2934 4.17042 11.2613 4.23077 11.1592C4.54832 10.6216 4.62797 9.83661 4.42716 9.2235C4.11233 8.26237 3.25218 7.60609 2.30727 7.60609C2.18828 7.60609 2.09349 7.50656 2.09929 7.38772L2.10462 7.27858C2.15003 6.34803 2.37915 5.62061 2.8642 4.86704C3.08252 4.52787 3.54415 4.02174 3.85043 3.78577C4.08537 3.60473 4.3863 3.40617 4.42909 3.40393C4.445 3.40311 4.50426 3.48327 4.56077 3.58207ZM2.56375 8.65265C3.08828 8.7932 3.46348 9.22115 3.55039 9.77794C3.63408 10.3142 3.34789 10.894 2.87115 11.1542C2.65417 11.2726 2.50136 11.3109 2.24923 11.3099C1.75296 11.308 1.3066 11.0064 1.08426 10.5228C0.989308 10.3162 0.989207 10.3156 0.990225 9.97231C0.991396 9.58354 1.02171 9.47361 1.20504 9.19318C1.50016 8.74183 2.06213 8.51824 2.56375 8.65265ZM11.0288 8.65146C11.446 8.75359 11.7853 9.06152 11.9504 9.4877C12.0195 9.66619 12.0444 10.0756 11.9986 10.2798C11.9253 10.607 11.673 10.9617 11.3944 11.1293C11.019 11.3551 10.5442 11.3724 10.1596 11.1742C9.63859 10.9057 9.3432 10.2841 9.46137 9.70484C9.61468 8.95328 10.3215 8.47829 11.0288 8.65146Z" fill="#E22028"/>
</svg>
