<svg width="13" height="13" viewBox="0 0 13 13" fill="none" xmlns="http://www.w3.org/2000/svg">
<path fill-rule="evenodd" clip-rule="evenodd" d="M6.09107 0.0185365C5.15433 0.114395 4.3068 0.509967 3.62104 1.17141C2.46116 2.29021 2.0572 3.93205 2.56681 5.4562C2.69474 5.83883 2.95564 6.33286 3.18017 6.61767C3.22394 6.6732 3.25978 6.73101 3.25978 6.74614C3.25978 6.76127 3.17506 6.82388 3.07152 6.88529C2.80735 7.04198 2.4452 7.31273 2.12748 7.59105C0.834418 8.72381 0.00965283 10.5055 0.000576056 12.1856C-0.00172784 12.6105 -0.000645258 12.6185 0.0739675 12.7314C0.325286 13.1117 0.890017 13.0807 1.09834 12.6751C1.13986 12.5942 1.15802 12.4742 1.17795 12.1485C1.22722 11.3441 1.39518 10.6972 1.72605 10.0376C2.2157 9.06146 3.08582 8.18784 4.05473 7.69952L4.22339 7.61452L4.6229 7.81555C5.93157 8.47409 7.35518 8.42556 8.63137 7.67887L8.75153 7.60856L8.96879 7.71792C9.90001 8.1866 10.709 8.99076 11.2103 9.94591C11.5809 10.6522 11.756 11.2965 11.8088 12.1485C11.829 12.4737 11.8473 12.5943 11.8888 12.6751C12.0952 13.077 12.6434 13.1136 12.9044 12.7428C12.9822 12.6322 12.9896 12.6014 12.9983 12.3517C13.0171 11.8114 12.8812 10.9874 12.6667 10.341C12.5364 9.94849 12.1854 9.22383 11.9551 8.87226C11.7073 8.49385 11.3798 8.1031 11.0145 7.7499C10.6537 7.40105 10.4 7.20138 9.97962 6.93528L9.70437 6.76102L9.87145 6.52801C10.2065 6.0608 10.47 5.42807 10.5803 4.8262C10.6431 4.48359 10.6416 3.77841 10.5773 3.42671C10.5166 3.0949 10.348 2.58593 10.2039 2.29974C9.79667 1.49116 9.05842 0.770273 8.25412 0.395818C7.58771 0.0855737 6.79203 -0.0532118 6.09107 0.0185365ZM6.96874 1.22426C7.59898 1.3324 8.13259 1.60659 8.57891 2.05168C8.96022 2.43193 9.2167 2.88417 9.374 3.45356C9.42188 3.6269 9.43168 3.74213 9.43176 4.13338C9.43185 4.55315 9.42405 4.63354 9.36007 4.87107C9.21736 5.4008 8.94373 5.86787 8.55709 6.24171C7.97071 6.80869 7.29495 7.08479 6.49355 7.08479C5.67187 7.08479 4.95297 6.78078 4.37958 6.19086C4.00252 5.80288 3.76772 5.39182 3.62712 4.87348C3.56159 4.63182 3.55426 4.55661 3.55487 4.13338C3.55548 3.71481 3.56361 3.63234 3.62765 3.39392C4.02375 1.91974 5.48634 0.969943 6.96874 1.22426Z" fill="#E22028"/>
</svg>
