<svg width="10" height="12" viewBox="0 0 10 12" fill="none" xmlns="http://www.w3.org/2000/svg">
  <path d="M5 0.749512C3.90638 0.750802 2.85792 1.18581 2.08461 1.95912C1.31131 2.73243 0.876295 3.78089 0.875004 4.87451C0.873695 5.76822 1.16562 6.63768 1.706 7.34951C1.706 7.34951 1.8185 7.49764 1.83688 7.51901L5 11.2495L8.16463 7.51714C8.18113 7.49726 8.29401 7.34951 8.29401 7.34951L8.29438 7.34839C8.83449 6.63687 9.12629 5.76781 9.125 4.87451C9.12371 3.78089 8.6887 2.73243 7.9154 1.95912C7.14209 1.18581 6.09363 0.750802 5 0.749512V0.749512ZM5 6.37451C4.70333 6.37451 4.41332 6.28654 4.16665 6.12172C3.91998 5.95689 3.72772 5.72263 3.61419 5.44854C3.50065 5.17445 3.47095 4.87285 3.52883 4.58188C3.5867 4.2909 3.72957 4.02363 3.93934 3.81385C4.14912 3.60407 4.4164 3.46121 4.70737 3.40333C4.99834 3.34546 5.29994 3.37516 5.57403 3.48869C5.84812 3.60222 6.08239 3.79448 6.24721 4.04116C6.41203 4.28783 6.5 4.57784 6.5 4.87451C6.49951 5.27218 6.34131 5.65343 6.06012 5.93462C5.77892 6.21582 5.39768 6.37402 5 6.37451V6.37451Z" fill="#E22028"/>
  <line x1="1" y1="1" x2="9" y2="11" stroke="#E22028" stroke-width="1.5" stroke-linecap="round"/>
</svg>
