<svg width="13" height="13" viewBox="0 0 13 13" fill="none" xmlns="http://www.w3.org/2000/svg">
<path fill-rule="evenodd" clip-rule="evenodd" d="M1.62597 0.0163035C0.992189 0.124534 0.493708 0.496341 0.212442 1.07066C-0.00416123 1.51291 0.0121255 1.21172 0.00224626 4.95873C-0.0037783 7.24452 0.00222073 8.37351 0.0213921 8.56146C0.117734 9.50656 0.581243 10.3174 1.34948 10.8848C1.51408 11.0063 4.37498 12.7914 4.53328 12.8713C5.27639 13.2465 6.27022 12.762 6.46765 11.9283C6.49609 11.8083 6.50543 11.5959 6.50571 11.064L6.5061 10.3588L7.13791 10.3586C7.85813 10.3584 8.1314 10.334 8.41361 10.2449C8.70639 10.1525 8.91429 10.0204 9.17375 9.76186C9.43442 9.50212 9.54084 9.33772 9.65487 9.01862C9.73345 8.79871 9.73455 8.789 9.74348 8.22444C9.75326 7.60611 9.74307 7.53264 9.62511 7.37064C9.44981 7.12991 9.08693 7.04938 8.81156 7.19011C8.67826 7.25824 8.5934 7.34848 8.50819 7.51267C8.4699 7.58641 8.45959 7.68844 8.44774 8.10986C8.43365 8.61058 8.43237 8.6199 8.361 8.74079C8.27561 8.88541 8.11312 8.99715 7.93188 9.03583C7.86147 9.05087 7.51776 9.06281 7.1558 9.06281H6.5061L6.50594 6.71853C6.50579 4.12132 6.50405 4.08839 6.34466 3.64444C6.14199 3.07996 5.73615 2.58564 5.23218 2.28943C5.12826 2.22834 4.5826 1.98207 4.01961 1.74215C3.45664 1.50223 2.99102 1.30138 2.98489 1.29581C2.97876 1.29025 4.10454 1.28877 5.48662 1.29253L7.99947 1.29937L8.10158 1.35421C8.21036 1.41266 8.30739 1.5064 8.38548 1.62853C8.42686 1.69326 8.43541 1.77359 8.44774 2.21302C8.46421 2.80065 8.48562 2.87783 8.68209 3.05724C8.85057 3.21108 9.08236 3.2587 9.31908 3.18811C9.45229 3.14839 9.62858 2.99033 9.69728 2.84908C9.7506 2.73941 9.75239 2.71077 9.74203 2.13147C9.73228 1.58701 9.72556 1.51194 9.67348 1.3629C9.44654 0.713438 8.95763 0.244328 8.30581 0.0505846C8.16249 0.00796825 7.9466 0.0047663 4.9489 0.000497044C3.18684 -0.00199336 1.69152 0.00512208 1.62597 0.0163035ZM2.85181 2.64929C3.68931 3.00738 4.43972 3.33443 4.51939 3.37606C4.79058 3.51773 5.02676 3.79866 5.13385 4.10686L5.19141 4.2726V7.9955C5.19141 11.3711 5.18766 11.7181 5.15113 11.7156C5.09175 11.7115 2.1618 9.88297 1.9998 9.74895C1.71049 9.50964 1.46272 9.11659 1.35747 8.73004C1.31667 8.58021 1.31251 8.30609 1.30506 5.28274C1.30059 3.47623 1.30419 1.99821 1.31302 1.99821C1.32186 1.99821 2.01432 2.29118 2.85181 2.64929ZM10.9607 3.23436C10.719 3.29286 10.5661 3.4109 10.4719 3.61188C10.3491 3.87378 10.4101 4.13952 10.6484 4.38061L10.7803 4.51402H9.59233C8.25751 4.51402 8.22039 4.51814 8.03223 4.68698C7.68747 4.99637 7.75303 5.52617 8.16239 5.73907L8.29886 5.81005H9.53405C10.2134 5.81005 10.7692 5.81909 10.7692 5.83017C10.7692 5.84123 10.7162 5.90128 10.6514 5.96359C10.3754 6.22881 10.3355 6.584 10.5501 6.86415C10.7087 7.0711 11.013 7.1556 11.2827 7.0676C11.4097 7.02612 11.4761 6.96648 12.1555 6.28297C12.56 5.87609 12.9151 5.49747 12.9447 5.44157C13.0086 5.32111 13.0187 5.0878 12.9667 4.93332C12.94 4.85388 12.7729 4.67163 12.2019 4.09899C11.7161 3.61178 11.4325 3.3465 11.3556 3.30724C11.2369 3.24666 11.0514 3.21243 10.9607 3.23436Z" fill="#E22028"/>
</svg>
