<svg width="8" height="8" viewBox="0 0 8 8" fill="none" xmlns="http://www.w3.org/2000/svg">
<path fill-rule="evenodd" clip-rule="evenodd" d="M3.8209 0.0251017C3.7766 0.0410739 3.71134 0.0753971 3.67588 0.10135C3.60314 0.154578 2.76899 0.908544 2.68071 1.00084C2.56203 1.12491 2.53558 1.29463 2.61 1.45433C2.6845 1.6142 2.83515 1.71356 3.00299 1.71356C3.12806 1.71356 3.2126 1.66782 3.40116 1.4981L3.56136 1.35394L3.56596 2.49349C3.5685 3.12025 3.56777 3.63585 3.56433 3.63929C3.56091 3.64272 3.06117 3.64344 2.45381 3.64091L1.34954 3.6363L1.4935 3.47533C1.66411 3.28459 1.70873 3.20228 1.70873 3.07836C1.70873 2.77756 1.37426 2.55413 1.10909 2.67781C1.02577 2.71667 0.929823 2.81392 0.443236 3.35277C0.23277 3.58584 0.0679492 3.78463 0.0428537 3.83569C0.00812812 3.90632 0.000144873 3.95077 1.67492e-06 4.07451C-0.000266822 4.28962 0.0312546 4.34072 0.450091 4.80406C1.06319 5.48229 1.08904 5.50438 1.27019 5.50481C1.43657 5.50522 1.6185 5.38249 1.68412 5.22556C1.71904 5.14203 1.71432 4.99122 1.67411 4.9062C1.6555 4.86686 1.57484 4.76222 1.4949 4.67369L1.34954 4.51271L2.45381 4.5081C3.06117 4.50558 3.56091 4.50631 3.56435 4.50974C3.56778 4.51318 3.56852 4.99658 3.56598 5.58398L3.56136 6.65198L3.40026 6.50584C3.21212 6.33517 3.13323 6.2933 2.9987 6.29276C2.70675 6.29158 2.48497 6.61385 2.59563 6.87846C2.63095 6.96293 2.64654 6.97939 2.97962 7.28343C3.78059 8.01461 3.75976 7.99998 3.9999 7.99998C4.21436 7.99998 4.26724 7.96764 4.72112 7.55884C5.40015 6.94726 5.43088 6.91142 5.43131 6.73058C5.43172 6.56236 5.31187 6.38607 5.15159 6.31916C5.06363 6.28244 4.91906 6.28596 4.83224 6.32696C4.79286 6.34556 4.68815 6.42616 4.59955 6.50603L4.43845 6.65129L4.43383 5.58364C4.43129 4.99642 4.43202 4.51318 4.43546 4.50974C4.43889 4.50631 4.93864 4.50558 5.546 4.5081L6.65027 4.51271L6.5049 4.67369C6.42496 4.76222 6.34431 4.86686 6.32569 4.9062C6.28549 4.99122 6.28076 5.14203 6.31569 5.22556C6.38131 5.38249 6.56324 5.50522 6.72962 5.50481C6.91076 5.50438 6.93661 5.48229 7.54971 4.80406C7.96837 4.34092 8 4.28967 8 4.07451C8 3.85934 7.96837 3.80809 7.54971 3.34495C7.06812 2.8122 6.97352 2.71644 6.89072 2.67781C6.68711 2.58283 6.41082 2.70144 6.31789 2.9237C6.28114 3.0116 6.28466 3.15606 6.32569 3.24281C6.34431 3.28216 6.42496 3.38679 6.5049 3.47533L6.65027 3.6363L5.546 3.64091C4.93864 3.64344 4.43889 3.64272 4.43548 3.63929C4.43204 3.63585 4.43131 3.12041 4.43385 2.49385L4.43845 1.35464L4.59955 1.4985C4.68815 1.57762 4.7934 1.65838 4.83342 1.67796C5.03342 1.77578 5.31171 1.65677 5.40507 1.43348C5.44296 1.34283 5.43937 1.18998 5.39745 1.10919C5.35603 1.0294 5.22213 0.898331 4.72112 0.447086C4.4927 0.241361 4.30379 0.0859856 4.24678 0.0569924C4.12642 -0.00423128 3.94076 -0.0181466 3.8209 0.0251017Z" fill="#1A2D55"/>
</svg>
