<svg width="10" height="10" viewBox="0 0 10 10" fill="none" xmlns="http://www.w3.org/2000/svg">
<circle cx="5" cy="5" r="5" fill="#E22028"/>
<path d="M5.39121 4.99974L6.5845 3.80906C6.63675 3.75679 6.66611 3.68591 6.66611 3.612C6.66611 3.53809 6.63675 3.4672 6.5845 3.41494C6.53224 3.36267 6.46137 3.33331 6.38747 3.33331C6.31357 3.33331 6.24269 3.36267 6.19044 3.41494L4.99992 4.6084L3.8094 3.41494C3.75715 3.36267 3.68627 3.33331 3.61237 3.33331C3.53847 3.33331 3.46759 3.36267 3.41534 3.41494C3.36308 3.4672 3.33373 3.53809 3.33373 3.612C3.33373 3.68591 3.36308 3.75679 3.41534 3.80906L4.60863 4.99974L3.41534 6.19043C3.38933 6.21623 3.36868 6.24693 3.35459 6.28075C3.34051 6.31457 3.33325 6.35085 3.33325 6.38749C3.33325 6.42413 3.34051 6.4604 3.35459 6.49423C3.36868 6.52805 3.38933 6.55875 3.41534 6.58455C3.44114 6.61056 3.47183 6.63121 3.50565 6.6453C3.53946 6.65939 3.57574 6.66665 3.61237 6.66665C3.64901 6.66665 3.68528 6.65939 3.71909 6.6453C3.75291 6.63121 3.7836 6.61056 3.8094 6.58455L4.99992 5.39109L6.19044 6.58455C6.21623 6.61056 6.24693 6.63121 6.28074 6.6453C6.31456 6.65939 6.35083 6.66665 6.38747 6.66665C6.4241 6.66665 6.46037 6.65939 6.49419 6.6453C6.52801 6.63121 6.5587 6.61056 6.5845 6.58455C6.61051 6.55875 6.63115 6.52805 6.64524 6.49423C6.65933 6.4604 6.66659 6.42413 6.66659 6.38749C6.66659 6.35085 6.65933 6.31457 6.64524 6.28075C6.63115 6.24693 6.61051 6.21623 6.5845 6.19043L5.39121 4.99974Z" fill="white" stroke="white" stroke-width="0.3"/>
</svg>
