<svg width="16" height="13" viewBox="0 0 16 13" fill="none" xmlns="http://www.w3.org/2000/svg">
<path fill-rule="evenodd" clip-rule="evenodd" d="M11.0158 1.02188C11.3098 1.12149 11.5227 1.48703 11.4906 1.83705C11.4656 2.10867 11.3238 2.342 11.1016 2.47695L10.9921 2.54344H6.24242H1.49276L1.38326 2.47695C1.13165 2.32413 1.00241 2.08668 1.00099 1.77458C0.999535 1.46 1.13028 1.21148 1.37685 1.06007C1.46043 1.00878 1.72978 1.00546 6.20136 1.0005C8.80614 0.997644 10.9726 1.00724 11.0158 1.02188ZM14.4551 5.72931C14.6165 5.76499 14.7763 5.89332 14.8847 6.07428C15.0384 6.33098 15.0384 6.65968 14.8847 6.91639C14.7703 7.10731 14.6142 7.22593 14.4265 7.26452C14.326 7.28519 12.1212 7.29297 7.89746 7.28762C2.12207 7.28033 1.5111 7.27492 1.42432 7.23042C1.28265 7.15771 1.15897 7.02981 1.07474 6.86884C1.01128 6.74755 1 6.69117 1 6.49533C1 6.29949 1.01128 6.24312 1.07474 6.12182C1.15897 5.96086 1.28265 5.83295 1.42432 5.76025C1.51116 5.71572 2.12018 5.71067 7.92602 5.70658C11.552 5.70403 14.3854 5.7139 14.4551 5.72931ZM8.21661 10.4743C8.8238 10.7181 8.85624 11.6373 8.26821 11.9363C8.1465 11.9982 8.10568 11.999 4.85798 11.9996C1.19639 12.0004 1.41786 12.0132 1.21213 11.7889C1.0539 11.6164 0.999808 11.4696 1.00107 11.2161C1.00186 11.0565 1.01749 10.968 1.06151 10.8739C1.14397 10.6975 1.34397 10.5079 1.49142 10.4662C1.67957 10.413 8.08307 10.4207 8.21661 10.4743Z" fill="#FFF8F8" stroke="white"/>
</svg>
