<svg width="60" height="60" viewBox="0 0 60 60" fill="none" xmlns="http://www.w3.org/2000/svg">
<path fill-rule="evenodd" clip-rule="evenodd" d="M28.1126 0.0855532C23.7892 0.527977 19.8775 2.35369 16.7125 5.40653C11.3592 10.5702 9.49478 18.1479 11.8468 25.1824C12.4373 26.9484 13.6414 29.2286 14.6777 30.5431C14.8797 30.7994 15.0451 31.0662 15.0451 31.136C15.0451 31.2059 14.6541 31.4948 14.1763 31.7782C12.957 32.5014 11.2855 33.7511 9.81916 35.0356C3.85116 40.2637 0.0445515 48.4869 0.00265872 56.2412C-0.00797462 58.2021 -0.00297811 58.2392 0.341388 58.7603C1.50132 60.5157 4.10777 60.3723 5.06925 58.5003C5.26091 58.1271 5.3447 57.5732 5.43668 56.0701C5.66408 52.3573 6.43929 49.3716 7.96639 46.3272C10.2263 41.8221 14.2422 37.79 18.7141 35.5362L19.4926 35.1439L21.3365 36.0718C27.3765 39.1112 33.947 38.8872 39.8371 35.4409L40.3917 35.1164L41.3944 35.6212C45.6923 37.7843 49.4263 41.4958 51.7396 45.9042C53.4503 49.1641 54.2585 52.1379 54.5023 56.0701C54.5953 57.5708 54.6798 58.1277 54.8712 58.5003C55.824 60.3552 58.3544 60.5241 59.5586 58.813C59.9178 58.3024 59.952 58.1603 59.992 57.0076C60.0787 54.5143 59.4515 50.7113 58.4616 47.7279C57.8603 45.9161 56.2401 42.5715 55.1775 40.9489C54.0338 39.2024 52.5223 37.3989 50.8362 35.7688C49.1709 34.1587 47.9999 33.2371 46.0598 32.009L44.7894 31.2047L45.5605 30.1293C47.1067 27.9729 48.3231 25.0526 48.8323 22.2748C49.1221 20.6935 49.115 17.4388 48.8183 15.8156C48.5384 14.2842 47.76 11.9351 47.0948 10.6142C45.2154 6.8823 41.8081 3.55511 38.0959 1.82685C35.0202 0.394956 31.3478 -0.245593 28.1126 0.0855532ZM32.1634 5.65045C35.0722 6.14953 37.535 7.41502 39.595 9.46931C41.3548 11.2243 42.5386 13.3116 43.2646 15.9395C43.4856 16.7396 43.5308 17.2714 43.5312 19.0771C43.5316 21.0145 43.4956 21.3856 43.2003 22.4819C42.5417 24.9268 41.2787 27.0825 39.4943 28.8079C36.7879 31.4247 33.669 32.699 29.9702 32.699C26.1779 32.699 22.8599 31.2959 20.2134 28.5732C18.4732 26.7825 17.3895 24.8853 16.7406 22.493C16.4381 21.3776 16.4043 21.0305 16.4071 19.0771C16.4099 17.1453 16.4474 16.7646 16.743 15.6643C18.5712 8.86035 25.3215 4.47666 32.1634 5.65045Z" fill="#E22028"/>
</svg>
