<svg width="10" height="8" viewBox="0 0 10 8" fill="none" xmlns="http://www.w3.org/2000/svg">
<path d="M4.95536 6L5.60268 5.34091L4.75446 4.47727L4.10714 5.13636V5.45455H4.64286V6H4.95536ZM7.41071 1.90909C7.35119 1.84848 7.28981 1.85038 7.22656 1.91477L5.27344 3.90341C5.21019 3.9678 5.20833 4.0303 5.26786 4.09091C5.32738 4.15152 5.38876 4.14962 5.45201 4.08523L7.40513 2.09659C7.46838 2.0322 7.47024 1.9697 7.41071 1.90909ZM7.85714 5.28409V6.36364C7.85714 6.81439 7.69996 7.19981 7.3856 7.51989C7.07124 7.83996 6.69271 8 6.25 8H1.60714C1.16443 8 0.7859 7.83996 0.47154 7.51989C0.15718 7.19981 0 6.81439 0 6.36364V1.63636C0 1.18561 0.15718 0.800189 0.47154 0.480114C0.7859 0.160038 1.16443 0 1.60714 0H6.25C6.48437 0 6.70201 0.0473485 6.9029 0.142045C6.9587 0.168561 6.99219 0.212121 7.00335 0.272727C7.01451 0.337121 6.99777 0.392045 6.95312 0.4375L6.67969 0.715909C6.6276 0.768939 6.56808 0.784091 6.50112 0.761364C6.41555 0.738636 6.33184 0.727273 6.25 0.727273H1.60714C1.36161 0.727273 1.15141 0.816288 0.976562 0.994318C0.801711 1.17235 0.714286 1.38636 0.714286 1.63636V6.36364C0.714286 6.61364 0.801711 6.82765 0.976562 7.00568C1.15141 7.18371 1.36161 7.27273 1.60714 7.27273H6.25C6.49554 7.27273 6.70573 7.18371 6.88058 7.00568C7.05543 6.82765 7.14286 6.61364 7.14286 6.36364V5.64773C7.14286 5.59848 7.1596 5.55682 7.19308 5.52273L7.55022 5.15909C7.60603 5.10227 7.67113 5.08902 7.74554 5.11932C7.81994 5.14962 7.85714 5.20455 7.85714 5.28409ZM7.32143 1.09091L8.92857 2.72727L5.17857 6.54545H3.57143V4.90909L7.32143 1.09091ZM9.79911 1.84091L9.28571 2.36364L7.67857 0.727273L8.19196 0.204545C8.29613 0.0984849 8.42262 0.0454545 8.57143 0.0454545C8.72024 0.0454545 8.84673 0.0984849 8.95089 0.204545L9.79911 1.06818C9.90327 1.17424 9.95536 1.30303 9.95536 1.45455C9.95536 1.60606 9.90327 1.73485 9.79911 1.84091Z" fill="#E22028"/>
</svg>
