<svg width="15" height="14" viewBox="0 0 15 14" fill="none" xmlns="http://www.w3.org/2000/svg">
<path fill-rule="evenodd" clip-rule="evenodd" d="M13.2119 0.0524077C12.9793 0.131876 12.8127 0.244496 12.6318 0.444287C12.311 0.798835 12.2548 1.0403 12.2543 2.06652C12.2539 2.91065 12.2772 3.11044 12.4105 3.40399C12.6525 3.93693 13.26 4.2687 13.8228 4.17527C14.4141 4.07714 14.8733 3.60691 14.9696 3.00101C14.9865 2.89442 15.0002 2.4739 15 2.06652C14.9996 1.24381 14.9657 0.989013 14.8202 0.713506C14.6951 0.476515 14.376 0.180203 14.1484 0.0895084C13.891 -0.0130043 13.454 -0.0303202 13.2119 0.0524077ZM0.4913 1.4145C0.426102 1.43235 0.307749 1.50592 0.228335 1.57795C-0.129887 1.90294 -0.0553289 2.48371 0.372883 2.70362L0.54257 2.79076H5.44942H10.3563L10.5244 2.70441C10.9312 2.4955 11.0217 1.98287 10.7151 1.62394C10.4868 1.35663 10.877 1.37477 5.43562 1.37859C2.37329 1.38076 0.56656 1.39386 0.4913 1.4145ZM3.7252 4.9504C3.22186 5.08979 2.8046 5.57723 2.74177 6.09921L2.71797 6.29673L1.58408 6.31319C0.361127 6.33093 0.352407 6.33222 0.190354 6.51581C-0.113148 6.85966 -0.0325528 7.40495 0.354323 7.62489C0.436739 7.67173 0.608982 7.68167 1.58408 7.69583L2.71797 7.71229L2.74177 7.90981C2.79195 8.32664 3.10529 8.77333 3.48013 8.96229C4.26758 9.35934 5.23236 8.87848 5.41352 7.99872C5.4346 7.89625 5.44942 7.4861 5.44942 7.00451C5.44942 6.52292 5.4346 6.11277 5.41352 6.01029C5.2538 5.23463 4.47174 4.74367 3.7252 4.9504ZM7.17144 6.38979C7.094 6.4319 6.98753 6.52947 6.93483 6.60661C6.84829 6.73322 6.83899 6.77157 6.83899 7.00194C6.83899 7.22649 6.84944 7.27248 6.92633 7.38589C6.97434 7.45676 7.06672 7.5518 7.13163 7.59707L7.24957 7.67937H10.8988H14.548L14.6865 7.57916C15.127 7.26043 15.0657 6.57415 14.578 6.36415C14.4737 6.31918 14.0394 6.31319 10.886 6.31319H7.31225L7.17144 6.38979ZM10.6244 9.84754C10.3586 9.90706 10.1485 10.0263 9.94956 10.2303C9.58431 10.6051 9.53828 10.7948 9.53828 11.926C9.53828 12.8625 9.56204 13.0444 9.72103 13.3241C9.84992 13.5508 10.079 13.7655 10.3229 13.8884C10.5339 13.9947 10.5614 14 10.8959 14C11.2246 14 11.2612 13.9932 11.4621 13.8951C11.8831 13.6896 12.2004 13.2538 12.2437 12.8216L12.2625 12.6338H13.3063C14.5326 12.6338 14.6012 12.6224 14.804 12.3851C15.1105 12.0262 15.0201 11.5135 14.6133 11.3046L14.4451 11.2183H13.3493H12.2535V11.109C12.2535 10.9604 12.1672 10.6712 12.0736 10.5063C11.9743 10.3314 11.696 10.0605 11.5211 9.96849C11.3786 9.8936 11.0181 9.80224 10.8799 9.80603C10.836 9.80725 10.721 9.82591 10.6244 9.84754ZM0.374416 11.3046C0.0868547 11.4523 -0.0533804 11.7637 0.021944 12.0873C0.0775588 12.3261 0.298165 12.5471 0.533083 12.5994C0.660189 12.6276 1.62394 12.635 4.18763 12.6275L7.66954 12.6174L7.81188 12.5351C8.02585 12.4113 8.14286 12.2185 8.15861 11.9638C8.17308 11.7296 8.11203 11.5658 7.95199 11.4093C7.74589 11.2077 7.95908 11.2183 4.0831 11.2183H0.54257L0.374416 11.3046Z" fill="#E22028"/>
</svg>
