<svg width="16" height="16" viewBox="0 0 16 16" fill="none" xmlns="http://www.w3.org/2000/svg">
<path fill-rule="evenodd" clip-rule="evenodd" d="M5.34004 1.0404C4.86776 1.15491 4.48772 1.50762 4.32686 1.98071L4.26574 2.16049L4.25206 7.68611L4.23839 13.2117L4.17726 13.343C4.07553 13.5614 3.9582 13.7098 3.79444 13.8271C3.45628 14.0693 2.97363 14.1167 2.60456 13.944C2.38605 13.8417 2.18277 13.6595 2.08346 13.477C1.94686 13.226 1.92739 13.0833 1.92804 12.3375C1.92856 11.7315 1.93444 11.6399 1.97888 11.5431C2.08158 11.3194 2.22332 11.2588 2.64805 11.2571C2.99302 11.2557 3.10047 11.2187 3.20038 11.067C3.36824 10.8121 3.28196 10.5032 3.00771 10.3773C2.88059 10.3189 2.46891 10.3076 2.17358 10.3544C1.68677 10.4316 1.2711 10.7787 1.07789 11.2696C1.01608 11.4266 1.01285 11.4689 1.00328 12.2491C0.994994 12.9248 1.00096 13.1023 1.03804 13.2853C1.13116 13.745 1.34322 14.1237 1.68617 14.4427C1.93373 14.6729 2.16682 14.8151 2.46074 14.9153L2.67952 14.9898L7.3096 14.997C12.3502 15.0049 12.2028 15.0088 12.7027 14.8519C12.9779 14.7655 13.3362 14.5927 13.5802 14.4287C13.8031 14.2789 14.273 13.8101 14.4206 13.5904C14.5831 13.3484 14.7639 12.9745 14.8483 12.7058C15.0041 12.21 14.9997 12.3725 14.9999 7.09689C15 1.79333 15.0091 2.10586 14.8451 1.76732C14.7343 1.5385 14.462 1.26829 14.227 1.15389C14.1182 1.10094 13.9639 1.04418 13.8842 1.02776C13.783 1.00692 12.4962 0.998603 9.61786 1.00019C6.20384 1.00208 5.46956 1.009 5.34004 1.0404ZM13.7852 1.97984C13.9154 2.03901 14.0039 2.14172 14.0442 2.28044C14.064 2.34839 14.0704 3.89882 14.0646 7.23476L14.0563 12.0902L13.9944 12.309C13.7582 13.1446 13.1941 13.7211 12.3553 13.9843L12.1148 14.0597L8.48359 14.0672L4.85244 14.0747L4.96444 13.8519C5.02605 13.7294 5.10312 13.5352 5.13575 13.4204L5.19507 13.2117L5.20901 7.71346L5.22293 2.2152L5.2886 2.12309C5.32473 2.07246 5.40472 2.0081 5.46636 1.98008C5.57406 1.93117 5.73722 1.92918 9.62604 1.92918C13.5078 1.92918 13.6782 1.93126 13.7852 1.97984ZM6.79504 5.26118C6.46116 5.43863 6.48449 5.92978 6.83434 6.08871C6.92286 6.1289 7.01369 6.13945 7.27407 6.13981C7.64243 6.14033 7.76894 6.11467 7.8866 6.01565C7.99202 5.92694 8.06578 5.73447 8.04453 5.60358C8.02205 5.46495 7.91236 5.30971 7.79883 5.25582C7.65263 5.18642 6.92841 5.19028 6.79504 5.26118ZM9.13377 5.2617C8.81357 5.4606 8.80452 5.87108 9.11607 6.06486L9.21581 6.1269H10.802H12.3882L12.485 6.06669C12.6933 5.93709 12.7705 5.62002 12.6406 5.42722C12.6064 5.37645 12.5369 5.30692 12.4861 5.27273L12.3938 5.21052L10.8048 5.21063C9.30237 5.21071 9.21136 5.2135 9.13377 5.2617ZM6.91854 7.5812C6.73268 7.67943 6.65241 7.80595 6.65241 8.00069C6.65241 8.15934 6.71138 8.27637 6.84117 8.37539C6.93954 8.45045 6.9492 8.45204 7.30413 8.45204C7.62908 8.45204 7.67462 8.4461 7.74384 8.39481C7.88397 8.29095 7.94411 8.17261 7.94411 8.00069C7.94411 7.81238 7.87325 7.69008 7.71083 7.59808C7.6162 7.54447 7.56364 7.53664 7.30142 7.53719C7.08058 7.53768 6.97876 7.54939 6.91854 7.5812ZM9.22856 7.59721C8.89909 7.76352 8.90538 8.26252 9.23892 8.42083C9.32297 8.46074 9.49701 8.46566 10.8062 8.46528L12.2788 8.46481L12.3862 8.40373C12.5138 8.3311 12.6207 8.14733 12.6207 8.00069C12.6207 7.84548 12.5152 7.67249 12.3757 7.59866L12.2566 7.53566H10.8035C9.351 7.53566 9.35042 7.53569 9.22856 7.59721ZM6.83434 9.91266C6.48449 10.0716 6.46116 10.5627 6.79504 10.7402C6.87547 10.7829 6.95374 10.7909 7.29685 10.7909C7.76115 10.7909 7.85162 10.765 7.95901 10.6019C8.12688 10.347 8.0406 10.0382 7.76634 9.91225C7.6072 9.83916 6.99555 9.83943 6.83434 9.91266ZM9.22714 9.88651C8.89991 9.98772 8.78368 10.3681 9.00099 10.6265C9.14454 10.7971 9.07582 10.7909 10.8103 10.7909H12.3938L12.4861 10.7286C12.5369 10.6945 12.6064 10.6249 12.6406 10.5741C12.7705 10.3814 12.6933 10.0643 12.485 9.93468C12.3885 9.87467 12.3835 9.87445 10.8431 9.86955C9.9932 9.86684 9.26603 9.87447 9.22714 9.88651Z" fill="#E22028" stroke="#E22028" stroke-width="0.2"/>
</svg>
