<svg width="12" height="12" viewBox="0 0 12 12" fill="none" xmlns="http://www.w3.org/2000/svg">
<path fill-rule="evenodd" clip-rule="evenodd" d="M0.403097 0.0288509C0.350993 0.0426911 0.25641 0.0997624 0.192946 0.155634C-0.00852477 0.333027 5.28143e-05 0.218885 5.28143e-05 2.72397C5.28143e-05 4.32843 0.00822192 4.96207 0.0300488 5.04871C0.0712263 5.21231 0.25059 5.39172 0.414151 5.43291C0.500769 5.45474 1.13423 5.46291 2.73827 5.46291C5.24152 5.46291 5.12868 5.47137 5.30524 5.27071C5.36456 5.20332 5.41789 5.10938 5.43464 5.04283C5.47472 4.8837 5.47472 0.577579 5.43464 0.418443C5.41789 0.351898 5.36456 0.257954 5.30524 0.190566C5.12832 -0.010499 5.2443 -0.0019957 2.72058 0.00099193C1.34826 0.00262619 0.461608 0.0132744 0.403097 0.0288509ZM6.9384 0.0288509C6.88629 0.0426911 6.79171 0.0997624 6.72825 0.155634C6.52678 0.333027 6.53535 0.218885 6.53535 2.72397C6.53535 4.32843 6.54352 4.96207 6.56535 5.04871C6.60653 5.21231 6.78589 5.39172 6.94945 5.43291C7.03607 5.45474 7.66953 5.46291 9.27357 5.46291C11.7768 5.46291 11.664 5.47137 11.8405 5.27071C11.8999 5.20332 11.9532 5.10938 11.9699 5.04283C12.01 4.8837 12.01 0.577579 11.9699 0.418443C11.9532 0.351898 11.8999 0.257954 11.8405 0.190566C11.6636 -0.010499 11.7796 -0.0019957 9.25588 0.00099193C7.88356 0.00262619 6.99691 0.0132744 6.9384 0.0288509ZM4.36543 2.73064V4.3649H2.7316H1.09778V2.73064V1.09638H2.7316H4.36543V2.73064ZM10.9007 2.73064V4.3649H9.2669H7.63308V2.73064V1.09638H9.2669H10.9007V2.73064ZM0.403097 6.56589C0.350993 6.57973 0.25641 6.6368 0.192946 6.69267C-0.00852477 6.87006 5.28143e-05 6.75592 5.28143e-05 9.26101C5.28143e-05 10.8655 0.00822192 11.4991 0.0300488 11.5857C0.0712263 11.7493 0.25059 11.9288 0.414151 11.9699C0.500769 11.9918 1.13423 11.9999 2.73827 11.9999C5.24152 11.9999 5.12868 12.0084 5.30524 11.8077C5.36456 11.7404 5.41789 11.6464 5.43464 11.5799C5.47472 11.4207 5.47472 7.11461 5.43464 6.95548C5.41789 6.88893 5.36456 6.79499 5.30524 6.7276C5.12832 6.52654 5.2443 6.53504 2.72058 6.53803C1.34826 6.53966 0.461608 6.55031 0.403097 6.56589ZM8.9478 6.56443C8.52831 6.61744 8.08391 6.78465 7.73205 7.02187C7.50661 7.17386 7.1993 7.47773 7.04449 7.70172C6.38251 8.65955 6.38325 9.87684 7.04636 10.8363C7.19841 11.0563 7.52831 11.3818 7.7429 11.5236C8.5483 12.0556 9.55696 12.1359 10.4023 11.7354C11.01 11.4474 11.4461 11.0122 11.7305 10.41C12.0026 9.83364 12.0595 9.19893 11.8959 8.56545C11.8287 8.30566 11.6064 7.84817 11.4429 7.63341C10.9818 7.02774 10.3063 6.64829 9.53495 6.56162C9.27421 6.53233 9.199 6.53269 8.9478 6.56443ZM4.36543 9.26767V10.9019H2.7316H1.09778V9.26767V7.63341H2.7316H4.36543V9.26767ZM9.61154 7.67169C10.0741 7.76852 10.5036 8.10091 10.7169 8.52715C11.0421 9.17718 10.9265 9.90113 10.4148 10.4192C9.78102 11.0609 8.75856 11.0605 8.11656 10.4183C7.47493 9.77649 7.47406 8.75745 8.1146 8.11999C8.5179 7.71865 9.06007 7.5563 9.61154 7.67169Z" fill="#E22028"/>
</svg>
