<svg width="20" height="24" viewBox="0 0 20 24" fill="none" xmlns="http://www.w3.org/2000/svg">
<path d="M8.98 1.38C7.648 3.264 5.104 4.62 2.188 5.028C0.784004 5.22 0.856004 4.968 0.916004 9.54C0.952004 13.08 0.976004 13.452 1.228 14.28C1.564 15.396 2.38 16.98 3.148 18.012C4.444 19.728 7.3 22.152 9.244 23.184L10 23.58L10.756 23.172C11.176 22.956 11.992 22.44 12.568 22.02C15.856 19.68 17.932 17.088 18.772 14.268C19.024 13.452 19.048 13.08 19.084 9.54C19.144 4.968 19.216 5.22 17.812 5.028C14.944 4.632 12.496 3.336 11.14 1.5C10.504 0.648002 10.444 0.600002 10 0.600002C9.568 0.600002 9.508 0.648002 8.98 1.38ZM10.204 3.228C10.504 3.696 12.232 4.956 13.372 5.508C14.176 5.904 15.016 6.204 16.012 6.432L17.464 6.78L17.404 9.84C17.332 13.224 17.26 13.68 16.528 15.168C15.508 17.232 13.276 19.488 10.504 21.276L9.988 21.612L9.064 20.988C6.148 19.032 4 16.668 3.148 14.472C2.704 13.32 2.56 12.036 2.56 9.108V6.756L3.316 6.6C4.528 6.36 5.92 5.892 6.94 5.364C7.936 4.848 9.556 3.624 9.76 3.228C9.916 2.94 10.024 2.94 10.204 3.228Z" fill="#E22028"/>
<path d="M9.124 6.288C8.452 6.468 7.804 6.972 7.3 7.668C7 8.1 6.94 8.316 6.904 9.072C6.868 9.732 6.904 10.128 7.06 10.524C7.324 11.196 8.128 12.036 8.728 12.252L9.16 12.408V15.48C9.16 18.936 9.172 18.96 10.024 18.96C10.612 18.96 10.84 18.66 10.84 17.904V17.28H11.476C12.316 17.28 12.64 17.052 12.64 16.464C12.64 16.224 12.592 15.96 12.544 15.888C12.376 15.636 11.932 15.48 11.392 15.48H10.84V13.944V12.408L11.236 12.264C12.352 11.856 13.12 10.668 13.12 9.336C13.12 8.364 12.94 7.884 12.316 7.2C11.536 6.324 10.276 5.964 9.124 6.288ZM10.864 8.244C11.74 9.036 11.488 10.356 10.372 10.692C9.448 10.968 8.488 10.164 8.608 9.204C8.656 8.724 9.04 8.22 9.46 8.028C9.82 7.872 10.588 7.992 10.864 8.244Z" fill="#E22028"/>
</svg>
