<svg width="10" height="10" viewBox="0 0 10 10" fill="none" xmlns="http://www.w3.org/2000/svg">
<path d="M9.83405 9.05405L8.03934 7.27273C9.44069 5.47912 9.29318 2.92383 7.68285 1.3145C6.83467 0.46683 5.70375 0 4.49908 0C3.29441 0 2.16349 0.46683 1.3153 1.3145C0.467117 2.16216 0 3.29238 0 4.49632C0 5.70025 0.467117 6.83047 1.3153 7.67813C2.16349 8.5258 3.29441 8.99263 4.49908 8.99263C5.49478 8.99263 6.47818 8.66093 7.2649 8.0344L9.04733 9.8403C9.15796 9.95086 9.29318 10 9.44069 10C9.5882 10 9.72342 9.93858 9.83405 9.8403C10.0553 9.63145 10.0553 9.27518 9.83405 9.05405ZM7.89183 4.49632C7.89183 5.40541 7.53534 6.25307 6.89613 6.89189C6.25691 7.53071 5.39644 7.88698 4.49908 7.88698C3.60172 7.88698 2.74124 7.53071 2.10203 6.89189C1.46282 6.25307 1.10633 5.39312 1.10633 4.49632C1.10633 3.58722 1.46282 2.73956 2.10203 2.10074C2.74124 1.46192 3.60172 1.10565 4.49908 1.10565C5.40873 1.10565 6.25691 1.46192 6.89613 2.10074C7.53534 2.73956 7.89183 3.58722 7.89183 4.49632Z" fill="#BFCBD9"/>
</svg>
