<svg width="12" height="12" viewBox="0 0 12 12" fill="none" xmlns="http://www.w3.org/2000/svg">
<path d="M6 7.49951C6.82843 7.49951 7.5 6.82794 7.5 5.99951C7.5 5.17108 6.82843 4.49951 6 4.49951C5.17157 4.49951 4.5 5.17108 4.5 5.99951C4.5 6.82794 5.17157 7.49951 6 7.49951Z" fill="#E22028"/>
<path d="M11.6026 5.87201C11.1615 4.73113 10.3958 3.74449 9.40013 3.03404C8.40444 2.3236 7.22239 1.92048 6.00008 1.87451C4.77778 1.92048 3.59573 2.3236 2.60004 3.03404C1.60434 3.74449 0.838645 4.73113 0.397585 5.87201C0.367797 5.9544 0.367797 6.04462 0.397585 6.12701C0.838645 7.26789 1.60434 8.25453 2.60004 8.96498C3.59573 9.67543 4.77778 10.0785 6.00008 10.1245C7.22239 10.0785 8.40444 9.67543 9.40013 8.96498C10.3958 8.25453 11.1615 7.26789 11.6026 6.12701C11.6324 6.04462 11.6324 5.9544 11.6026 5.87201ZM6.00008 8.43701C5.51799 8.43701 5.04673 8.29405 4.64588 8.02622C4.24504 7.75838 3.93262 7.3777 3.74813 6.9323C3.56364 6.48691 3.51537 5.99681 3.60942 5.52398C3.70347 5.05115 3.93562 4.61683 4.27651 4.27594C4.6174 3.93505 5.05172 3.7029 5.52455 3.60885C5.99738 3.5148 6.48748 3.56307 6.93287 3.74756C7.37827 3.93204 7.75896 4.24446 8.02679 4.64531C8.29463 5.04615 8.43758 5.51742 8.43758 5.99951C8.43659 6.64567 8.17947 7.26508 7.72256 7.72199C7.26566 8.17889 6.64625 8.43602 6.00008 8.43701Z" fill="#E22028"/>
</svg>
